<svg width="152" height="48" viewBox="0 0 152 48" fill="none" xmlns="http://www.w3.org/2000/svg">
<g filter="url(#filter0_dd_99_5449)">
<path d="M0 20C0 11.1634 7.16344 4 16 4H128C136.837 4 144 11.1634 144 20C144 28.8366 136.837 36 128 36H16C7.16344 36 0 28.8366 0 20Z" fill="white"/>
</g>
<path d="M16.0359 8.13007V8.1419C16.0477 8.20101 16.0477 8.27194 16.0477 8.34288V16.867C16.0359 16.9143 16.0004 16.9261 15.965 16.9498C15.7167 17.068 15.4802 17.1744 15.232 17.2808C14.8891 17.4345 14.5344 17.6 14.1916 17.7537L12.9502 18.3212C12.6073 18.4749 12.2645 18.6286 11.9335 18.7823C11.5315 18.9715 11.1177 19.1488 10.7157 19.338C10.3729 19.4916 10.03 19.6572 9.67532 19.8109C9.39158 19.9409 9.10784 20.0591 8.83591 20.1892C8.81227 20.201 8.78862 20.2128 8.76498 20.2128C8.75316 20.2128 8.75316 20.2128 8.74133 20.201L9.06054 19.669C9.67532 18.6522 10.2783 17.6473 10.8931 16.6306C11.5433 15.5429 12.2054 14.4552 12.8556 13.3675C13.4586 12.3626 14.0734 11.3577 14.6763 10.3527C15.1137 9.61973 15.563 8.88672 16.0004 8.15372C16.0123 8.13007 16.0241 8.11825 16.0241 8.0946H16.0359C16.0241 8.10643 16.0359 8.11825 16.0359 8.13007Z" fill="#8A92B2"/>
<path d="M23.2945 20.201L23.3063 20.2128L21.5684 21.2414L16.1063 24.469C16.0827 24.4808 16.059 24.4926 16.0472 24.5044C16.0117 24.5044 16.0117 24.469 16.0117 24.4572V24.3508V17.0444C16.0117 17.0089 16.0117 16.9616 16.0235 16.9261C16.0354 16.8788 16.0708 16.8907 16.1063 16.9025C16.26 16.9734 16.4255 17.0444 16.5792 17.1153C17.0403 17.3281 17.5014 17.5409 17.9625 17.7419C18.3644 17.9192 18.7546 18.1084 19.1565 18.2857C19.5585 18.4631 19.9605 18.6522 20.3625 18.8296C20.7053 18.9833 21.06 19.1488 21.4029 19.3025C21.7457 19.4562 22.1004 19.6217 22.4432 19.7754C22.7152 19.8936 22.9871 20.0237 23.259 20.1419C23.259 20.1774 23.2708 20.1892 23.2945 20.201Z" fill="#454A75"/>
<path d="M16.0354 31.8464C16.0354 31.8582 16.0236 31.87 16.0236 31.8818H16.0118C16.0118 31.8582 15.9881 31.8464 15.9763 31.8227C15.2433 30.7941 14.5103 29.7537 13.7773 28.7252C13.0325 27.673 12.2758 26.6089 11.531 25.5567C10.8098 24.5399 10.0768 23.5114 9.35562 22.4946C9.16646 22.2227 8.9773 21.9626 8.78814 21.6907C8.77631 21.667 8.76449 21.6552 8.74084 21.6198C8.77631 21.6198 8.79996 21.6434 8.81178 21.6552C9.84035 22.2582 10.8571 22.8611 11.8857 23.4641C13.0679 24.1616 14.2384 24.8592 15.4206 25.5567L16.0236 25.9114C16.0472 25.935 16.0472 25.9587 16.0472 25.9823V31.6808C16.0472 31.7399 16.0472 31.7991 16.0354 31.8464Z" fill="#8A92B2"/>
<path d="M8.729 20.2247V20.2129C9.10733 20.0473 9.47383 19.87 9.85216 19.7045C10.3369 19.4798 10.8216 19.267 11.3063 19.0424C11.6728 18.8769 12.0512 18.6996 12.4177 18.534C12.9615 18.2858 13.4935 18.0493 14.0374 17.801C14.4039 17.6355 14.7704 17.47 15.1487 17.2927C15.4088 17.1744 15.6807 17.0562 15.9408 16.938C15.9645 16.9262 15.9999 16.9143 16.0118 16.8907C16.0236 16.8907 16.0236 16.9025 16.0118 16.9143V24.4217C16.0118 24.4572 15.9999 24.4927 16.0236 24.5163C15.9999 24.5518 15.9763 24.5163 15.9645 24.5045C15.8581 24.4454 15.7517 24.3863 15.6453 24.3153C13.3635 22.9675 11.0699 21.6079 8.78812 20.2601C8.77629 20.2483 8.75265 20.2365 8.729 20.2247Z" fill="#62688F"/>
<path d="M23.2708 21.6198H23.2827C23.2827 21.6434 23.259 21.667 23.2472 21.6907C21.0718 24.7528 18.8965 27.8266 16.7211 30.8887C16.4965 31.2079 16.26 31.5271 16.0354 31.8464C16.0236 31.8345 16.0236 31.8227 16.0236 31.8109V31.74V26.006V25.8996C16.5201 25.604 17.0048 25.3202 17.5014 25.0247C19.4167 23.8897 21.3319 22.7665 23.2354 21.6316C23.2472 21.6434 23.259 21.6316 23.2708 21.6198Z" fill="#62688F"/>
<path d="M16.0236 16.9143V16.8907V16.8197V8.23649C16.0236 8.20102 16.0118 8.17737 16.0355 8.14191C18.4355 12.1261 20.8355 16.0986 23.2236 20.0828C23.2473 20.1183 23.2828 20.1656 23.2946 20.2128C23.1291 20.1537 22.9754 20.071 22.8217 20C22.6325 19.9173 22.4315 19.8227 22.2424 19.7399C22.1241 19.6808 21.9941 19.6335 21.8759 19.5744C21.6749 19.4798 21.4739 19.3971 21.2729 19.3025C21.1547 19.2552 21.0365 19.1961 20.9182 19.137L20.1379 18.7823C20.0079 18.7232 19.8778 18.6641 19.736 18.605L19.1685 18.3567C19.0502 18.3094 18.932 18.2503 18.8138 18.1912L18.0335 17.8365C17.9034 17.7774 17.7734 17.7183 17.6315 17.6591L17.064 17.4109C16.934 17.3518 16.8158 17.2926 16.6857 17.2335C16.4611 17.1271 16.2365 17.0207 16 16.9261C16.0355 16.9143 16.0236 16.9143 16.0236 16.9143Z" fill="#62688F"/>
<g clip-path="url(#clip0_99_5449)">
<path d="M39.339 18.085L44 13.424L48.6631 18.087L51.3751 15.375L44 8L36.6272 15.3728L39.3391 18.0848L39.339 18.085ZM32 20L34.7121 17.2875L37.424 19.9994L34.7119 22.7115L32 20ZM39.339 21.9152L44 26.5759L48.663 21.913L51.3765 24.6236L51.3751 24.625L44 31.9999L36.6272 24.6271L36.6233 24.6233L39.3393 21.915L39.339 21.9152ZM50.5759 20.0011L53.288 17.289L55.9999 20.0009L53.2879 22.713L50.5759 20.0011Z" fill="#F3BA2F"/>
<path d="M46.7505 19.9986H46.7517L43.9999 17.2466L41.966 19.28L41.7323 19.5138L41.2504 19.9958L41.2466 19.9995L41.2504 20.0035L43.9999 22.7534L46.7519 20.0014L46.7532 19.9999L46.7507 19.9986" fill="#F3BA2F"/>
</g>
<g clip-path="url(#clip1_99_5449)">
<path d="M76.9512 16.952C76.8672 17.036 76.7544 17.084 76.6368 17.084H65.4888C65.0952 17.084 64.896 16.604 65.1696 16.3184L66.9984 14.4248C67.0824 14.3384 67.1976 14.288 67.3176 14.288H78.5064C78.9024 14.288 79.1016 14.7728 78.8208 15.0584L76.9512 16.952ZM76.9512 25.4144C76.8672 25.496 76.7544 25.544 76.6368 25.544H65.4888C65.0952 25.544 64.896 25.076 65.1696 24.7976L66.9984 22.9496C67.0824 22.8656 67.1976 22.8176 67.3176 22.8176H78.5064C78.9024 22.8176 79.1016 23.2904 78.8208 23.5688L76.9512 25.4144ZM76.6368 18.5528C76.7544 18.5528 76.8672 18.5984 76.9512 18.6824L78.8208 20.5304C79.1016 20.8064 78.9024 21.2816 78.5064 21.2816H67.3176C67.1976 21.2816 67.0824 21.2336 66.9984 21.1496L65.1696 19.3016C64.8936 19.0232 65.0928 18.5552 65.4888 18.5552L76.6368 18.5528Z" fill="#00FFAD"/>
<path d="M72 8C78.6264 8 84 13.3736 84 20C84 26.6264 78.6264 32 72 32C65.3736 32 60 26.6264 60 20C60 13.3736 65.3736 8 72 8Z" fill="black"/>
<path fill-rule="evenodd" clip-rule="evenodd" d="M65.5488 18.8552H76.6536C76.7928 18.8552 76.9248 18.9104 77.0208 19.0088L78.7776 20.7776C79.1016 21.104 78.8712 21.6608 78.4104 21.6608H67.3056C67.1664 21.6608 67.0344 21.6056 66.9384 21.5072L65.1816 19.7384C64.8552 19.412 65.088 18.8552 65.5488 18.8552ZM65.1816 16.5104L66.9384 14.7416C67.0368 14.6432 67.1688 14.588 67.3056 14.588H78.408C78.8688 14.588 79.1016 15.1448 78.7752 15.4712L77.0208 17.24C76.9224 17.3384 76.7904 17.3936 76.6536 17.3936H65.5488C65.088 17.3936 64.8552 16.8368 65.1816 16.5104ZM78.7752 24.0056L77.0184 25.7744C76.92 25.8728 76.788 25.928 76.6512 25.928H65.5488C65.088 25.928 64.8552 25.3712 65.1816 25.0448L66.9384 23.276C67.0368 23.1776 67.1688 23.1224 67.3056 23.1224H78.408C78.8688 23.1224 79.1016 23.6792 78.7752 24.0056Z" fill="url(#paint0_linear_99_5449)"/>
</g>
<g clip-path="url(#clip2_99_5449)">
<path d="M99.9071 31.8141C106.483 31.8141 111.814 26.4831 111.814 19.9071C111.814 13.331 106.483 8 99.9071 8C93.331 8 88 13.331 88 19.9071C88 26.4831 93.331 31.8141 99.9071 31.8141Z" fill="#3CB054"/>
<path d="M94.9635 13.5895C103.81 13.9065 107.222 19.0501 105.509 23.6406C105.024 24.9179 104.508 25.617 103.424 26.3454C103.468 26.1613 103.514 25.9763 103.548 25.7879C104.189 22.2066 102.974 17.8974 97.0287 15.517C101.759 18.2442 103.668 23.0963 101.462 26.2284C97.7074 26.8001 94.9635 23.694 94.9635 20.1154V13.5895Z" fill="white"/>
</g>
<g clip-path="url(#clip3_99_5449)">
<path fill-rule="evenodd" clip-rule="evenodd" d="M127.97 8C134.62 8 139.94 13.3804 139.94 19.9698C139.94 26.6196 134.559 31.9395 127.97 31.9395C121.38 32 116 26.6196 116 19.9698C116 13.3804 121.38 8 127.97 8Z" fill="url(#paint1_linear_99_5449)"/>
<path fill-rule="evenodd" clip-rule="evenodd" d="M121.441 13.6826H128.574C131.476 13.6826 134.438 15.738 134.438 19.9093C134.438 24.0806 131.476 26.136 128.574 26.136H123.315V19.4257H126.398V23.1133H128.453C129.783 23.1133 131.355 21.602 131.355 19.9093C131.355 18.2166 129.844 16.7053 128.453 16.7053H125.068C123.557 16.7053 122.348 15.6776 121.441 13.6826Z" fill="white"/>
</g>
<defs>
<filter id="filter0_dd_99_5449" x="-8" y="0" width="160" height="48" filterUnits="userSpaceOnUse" color-interpolation-filters="sRGB">
<feFlood flood-opacity="0" result="BackgroundImageFix"/>
<feColorMatrix in="SourceAlpha" type="matrix" values="0 0 0 0 0 0 0 0 0 0 0 0 0 0 0 0 0 0 127 0" result="hardAlpha"/>
<feOffset dy="4"/>
<feGaussianBlur stdDeviation="4"/>
<feColorMatrix type="matrix" values="0 0 0 0 0 0 0 0 0 0 0 0 0 0 0 0 0 0 0.06 0"/>
<feBlend mode="normal" in2="BackgroundImageFix" result="effect1_dropShadow_99_5449"/>
<feColorMatrix in="SourceAlpha" type="matrix" values="0 0 0 0 0 0 0 0 0 0 0 0 0 0 0 0 0 0 127 0" result="hardAlpha"/>
<feOffset/>
<feGaussianBlur stdDeviation="2"/>
<feColorMatrix type="matrix" values="0 0 0 0 0 0 0 0 0 0 0 0 0 0 0 0 0 0 0.04 0"/>
<feBlend mode="normal" in2="effect1_dropShadow_99_5449" result="effect2_dropShadow_99_5449"/>
<feBlend mode="normal" in="SourceGraphic" in2="effect2_dropShadow_99_5449" result="shape"/>
</filter>
<linearGradient id="paint0_linear_99_5449" x1="65.8205" y1="26.4159" x2="78.1363" y2="14.1001" gradientUnits="userSpaceOnUse">
<stop stop-color="#CB4EE8"/>
<stop offset="1" stop-color="#10F4B1"/>
</linearGradient>
<linearGradient id="paint1_linear_99_5449" x1="139.973" y1="31.9728" x2="116" y2="8" gradientUnits="userSpaceOnUse">
<stop stop-color="#4B81EB"/>
<stop offset="1" stop-color="#6752F4"/>
</linearGradient>
<clipPath id="clip0_99_5449">
<rect width="24" height="23.9999" fill="white" transform="translate(32 8)"/>
</clipPath>
<clipPath id="clip1_99_5449">
<rect width="24" height="24" fill="white" transform="translate(60 8)"/>
</clipPath>
<clipPath id="clip2_99_5449">
<rect width="24" height="24" fill="white" transform="translate(88 8)"/>
</clipPath>
<clipPath id="clip3_99_5449">
<rect width="24" height="24" fill="white" transform="translate(116 8)"/>
</clipPath>
</defs>
</svg>
