<svg width="120" height="36" viewBox="0 0 120 36" fill="none" xmlns="http://www.w3.org/2000/svg">
<rect width="120" height="36" rx="10" fill="#1F2832"/>
<path d="M42.072 22L45.84 13.48H46.764L50.544 22H49.38L48.276 19.516H44.304L43.224 22H42.072ZM46.284 14.992L44.748 18.508H47.832L46.284 14.992ZM53.4938 22.12C52.8218 22.12 52.2578 21.956 51.8018 21.628C51.3538 21.3 51.1058 20.844 51.0578 20.26H52.1138C52.1778 20.596 52.3378 20.844 52.5938 21.004C52.8578 21.164 53.1618 21.244 53.5058 21.244C53.8498 21.244 54.1258 21.176 54.3338 21.04C54.5498 20.904 54.6578 20.708 54.6578 20.452C54.6578 20.212 54.5778 20.016 54.4178 19.864C54.2658 19.712 54.0138 19.588 53.6618 19.492L52.7978 19.264C51.7658 18.992 51.2498 18.404 51.2498 17.5C51.2498 17.012 51.4418 16.62 51.8258 16.324C52.2178 16.028 52.7178 15.88 53.3258 15.88C53.9418 15.88 54.4458 16.044 54.8378 16.372C55.2378 16.692 55.4618 17.1 55.5098 17.596H54.4778C54.3978 17.332 54.2538 17.124 54.0458 16.972C53.8458 16.82 53.6058 16.744 53.3258 16.744C53.0298 16.744 52.7818 16.812 52.5818 16.948C52.3898 17.084 52.2938 17.264 52.2938 17.488C52.2938 17.704 52.3658 17.88 52.5098 18.016C52.6538 18.152 52.8858 18.264 53.2058 18.352L54.1658 18.604C55.1898 18.86 55.7018 19.452 55.7018 20.38C55.7018 20.956 55.4978 21.392 55.0898 21.688C54.6818 21.976 54.1498 22.12 53.4938 22.12ZM59.0954 22.12C58.4234 22.12 57.8594 21.956 57.4034 21.628C56.9554 21.3 56.7074 20.844 56.6594 20.26H57.7154C57.7794 20.596 57.9394 20.844 58.1954 21.004C58.4594 21.164 58.7634 21.244 59.1074 21.244C59.4514 21.244 59.7274 21.176 59.9354 21.04C60.1514 20.904 60.2594 20.708 60.2594 20.452C60.2594 20.212 60.1794 20.016 60.0194 19.864C59.8674 19.712 59.6154 19.588 59.2634 19.492L58.3994 19.264C57.3674 18.992 56.8514 18.404 56.8514 17.5C56.8514 17.012 57.0434 16.62 57.4274 16.324C57.8194 16.028 58.3194 15.88 58.9274 15.88C59.5434 15.88 60.0474 16.044 60.4394 16.372C60.8394 16.692 61.0634 17.1 61.1114 17.596H60.0794C59.9994 17.332 59.8554 17.124 59.6474 16.972C59.4474 16.82 59.2074 16.744 58.9274 16.744C58.6314 16.744 58.3834 16.812 58.1834 16.948C57.9914 17.084 57.8954 17.264 57.8954 17.488C57.8954 17.704 57.9674 17.88 58.1114 18.016C58.2554 18.152 58.4874 18.264 58.8074 18.352L59.7674 18.604C60.7914 18.86 61.3034 19.452 61.3034 20.38C61.3034 20.956 61.0994 21.392 60.6914 21.688C60.2834 21.976 59.7514 22.12 59.0954 22.12ZM65.321 22.12C64.449 22.12 63.725 21.824 63.149 21.232C62.581 20.64 62.297 19.896 62.297 19C62.297 18.096 62.573 17.352 63.125 16.768C63.685 16.176 64.425 15.88 65.345 15.88C66.273 15.88 67.001 16.208 67.529 16.864C68.057 17.52 68.289 18.324 68.225 19.276H63.341C63.357 19.82 63.557 20.276 63.941 20.644C64.325 21.004 64.789 21.184 65.333 21.184C66.149 21.184 66.729 20.848 67.073 20.176H68.129C67.977 20.736 67.653 21.2 67.157 21.568C66.661 21.936 66.049 22.12 65.321 22.12ZM66.497 17.224C66.169 16.936 65.773 16.792 65.309 16.792C64.845 16.792 64.429 16.932 64.061 17.212C63.701 17.492 63.477 17.908 63.389 18.46H67.133C67.037 17.916 66.825 17.504 66.497 17.224ZM71.9602 22.06C71.4082 22.06 70.9642 21.904 70.6282 21.592C70.2922 21.28 70.1242 20.824 70.1242 20.224V16.948H68.8522V16H70.1242V14.332H71.1562V16H72.8842V16.948H71.1562V20.092C71.1562 20.468 71.2362 20.732 71.3962 20.884C71.5562 21.036 71.8082 21.112 72.1522 21.112C72.4562 21.112 72.7002 21.072 72.8842 20.992V21.916C72.5962 22.012 72.2882 22.06 71.9602 22.06ZM76.1345 22.12C75.4625 22.12 74.8985 21.956 74.4425 21.628C73.9945 21.3 73.7465 20.844 73.6985 20.26H74.7545C74.8185 20.596 74.9785 20.844 75.2345 21.004C75.4985 21.164 75.8025 21.244 76.1465 21.244C76.4905 21.244 76.7665 21.176 76.9745 21.04C77.1905 20.904 77.2985 20.708 77.2985 20.452C77.2985 20.212 77.2185 20.016 77.0585 19.864C76.9065 19.712 76.6545 19.588 76.3025 19.492L75.4385 19.264C74.4065 18.992 73.8905 18.404 73.8905 17.5C73.8905 17.012 74.0825 16.62 74.4665 16.324C74.8585 16.028 75.3585 15.88 75.9665 15.88C76.5825 15.88 77.0865 16.044 77.4785 16.372C77.8785 16.692 78.1025 17.1 78.1505 17.596H77.1185C77.0385 17.332 76.8945 17.124 76.6865 16.972C76.4865 16.82 76.2465 16.744 75.9665 16.744C75.6705 16.744 75.4225 16.812 75.2225 16.948C75.0305 17.084 74.9345 17.264 74.9345 17.488C74.9345 17.704 75.0065 17.88 75.1505 18.016C75.2945 18.152 75.5265 18.264 75.8465 18.352L76.8065 18.604C77.8305 18.86 78.3425 19.452 78.3425 20.38C78.3425 20.956 78.1385 21.392 77.7305 21.688C77.3225 21.976 76.7905 22.12 76.1345 22.12Z" fill="white"/>
</svg>
