<svg width="120" height="36" viewBox="0 0 120 36" fill="none" xmlns="http://www.w3.org/2000/svg">
<rect width="120" height="36" rx="10" fill="#1F2832"/>
<path d="M43.128 23V14.48H45.924C46.692 14.48 47.308 14.7 47.772 15.14C48.236 15.58 48.468 16.112 48.468 16.736C48.468 17.52 48.164 18.1 47.556 18.476C48.54 18.836 49.032 19.516 49.032 20.516C49.032 21.236 48.768 21.832 48.24 22.304C47.72 22.768 47.032 23 46.176 23H43.128ZM44.244 21.992H46.224C46.784 21.992 47.208 21.864 47.496 21.608C47.792 21.344 47.94 20.992 47.94 20.552C47.94 20.12 47.792 19.772 47.496 19.508C47.208 19.236 46.788 19.1 46.236 19.1H44.244V21.992ZM44.244 18.14H45.924C46.372 18.14 46.724 18.02 46.98 17.78C47.244 17.532 47.376 17.212 47.376 16.82C47.376 16.444 47.244 16.128 46.98 15.872C46.716 15.616 46.364 15.488 45.924 15.488H44.244V18.14ZM53.1829 23.12C52.2789 23.12 51.5269 22.82 50.9269 22.22C50.3349 21.612 50.0389 20.872 50.0389 20C50.0389 19.128 50.3349 18.392 50.9269 17.792C51.5269 17.184 52.2789 16.88 53.1829 16.88C54.0789 16.88 54.8229 17.184 55.4149 17.792C56.0149 18.392 56.3149 19.128 56.3149 20C56.3149 20.872 56.0149 21.612 55.4149 22.22C54.8229 22.82 54.0789 23.12 53.1829 23.12ZM51.6709 21.536C52.0629 21.952 52.5669 22.16 53.1829 22.16C53.7989 22.16 54.2989 21.952 54.6829 21.536C55.0669 21.12 55.2589 20.608 55.2589 20C55.2589 19.392 55.0669 18.88 54.6829 18.464C54.2989 18.048 53.7989 17.84 53.1829 17.84C52.5669 17.84 52.0629 18.048 51.6709 18.464C51.2869 18.88 51.0949 19.392 51.0949 20C51.0949 20.608 51.2869 21.12 51.6709 21.536ZM60.4602 23.12C59.5562 23.12 58.8042 22.82 58.2042 22.22C57.6122 21.612 57.3162 20.872 57.3162 20C57.3162 19.128 57.6122 18.392 58.2042 17.792C58.8042 17.184 59.5562 16.88 60.4602 16.88C61.3562 16.88 62.1002 17.184 62.6922 17.792C63.2922 18.392 63.5922 19.128 63.5922 20C63.5922 20.872 63.2922 21.612 62.6922 22.22C62.1002 22.82 61.3562 23.12 60.4602 23.12ZM58.9482 21.536C59.3402 21.952 59.8442 22.16 60.4602 22.16C61.0762 22.16 61.5762 21.952 61.9602 21.536C62.3442 21.12 62.5362 20.608 62.5362 20C62.5362 19.392 62.3442 18.88 61.9602 18.464C61.5762 18.048 61.0762 17.84 60.4602 17.84C59.8442 17.84 59.3402 18.048 58.9482 18.464C58.5642 18.88 58.3722 19.392 58.3722 20C58.3722 20.608 58.5642 21.12 58.9482 21.536ZM72.8016 23V19.472C72.8016 18.976 72.6976 18.58 72.4896 18.284C72.2896 17.98 71.9976 17.828 71.6136 17.828C71.1336 17.828 70.7416 18.016 70.4376 18.392C70.1416 18.768 69.9856 19.28 69.9696 19.928V23H68.9376V19.472C68.9376 18.968 68.8336 18.568 68.6256 18.272C68.4256 17.976 68.1376 17.828 67.7616 17.828C67.2656 17.828 66.8656 18.028 66.5616 18.428C66.2576 18.82 66.1056 19.352 66.1056 20.024V23H65.0736V17H66.1056V17.924C66.4896 17.228 67.0936 16.88 67.9176 16.88C68.8296 16.88 69.4456 17.308 69.7656 18.164C69.9256 17.772 70.1816 17.46 70.5336 17.228C70.8856 16.996 71.2856 16.88 71.7336 16.88C72.3816 16.88 72.8936 17.1 73.2696 17.54C73.6456 17.98 73.8336 18.572 73.8336 19.316V23H72.8016ZM76.0268 20.336L75.8228 17.888V14.48H76.8668V17.888L76.6628 20.336H76.0268ZM76.9628 22.832C76.7948 23.008 76.5868 23.096 76.3388 23.096C76.0908 23.096 75.8788 23.008 75.7028 22.832C75.5348 22.656 75.4508 22.444 75.4508 22.196C75.4508 21.956 75.5388 21.748 75.7148 21.572C75.8908 21.388 76.0988 21.296 76.3388 21.296C76.5788 21.296 76.7868 21.388 76.9628 21.572C77.1388 21.748 77.2268 21.956 77.2268 22.196C77.2268 22.444 77.1388 22.656 76.9628 22.832Z" fill="white"/>
</svg>
