<svg width="16" height="16" viewBox="0 0 16 16" fill="none" xmlns="http://www.w3.org/2000/svg">
<path d="M13 1.5H3C2.46957 1.5 1.96086 1.71071 1.58579 2.08579C1.21071 2.46086 1 2.96957 1 3.5V12.5C1 13.0304 1.21071 13.5391 1.58579 13.9142C1.96086 14.2893 2.46957 14.5 3 14.5H13C13.5304 14.5 14.0391 14.2893 14.4142 13.9142C14.7893 13.5391 15 13.0304 15 12.5V3.5C15 2.96957 14.7893 2.46086 14.4142 2.08579C14.0391 1.71071 13.5304 1.5 13 1.5ZM13.75 4.5H2.25C2.1837 4.5 2.12011 4.47366 2.07322 4.42678C2.02634 4.37989 2 4.3163 2 4.25V3.5C2.00074 3.23501 2.10634 2.98109 2.29371 2.79371C2.48109 2.60634 2.73501 2.50074 3 2.5H13C13.265 2.50074 13.5189 2.60634 13.7063 2.79371C13.8937 2.98109 13.9993 3.23501 14 3.5V4.25C14 4.3163 13.9737 4.37989 13.9268 4.42678C13.8799 4.47366 13.8163 4.5 13.75 4.5Z" fill="#1F2832"/>
</svg>
