<svg width="48" height="48" viewBox="0 0 48 48" fill="none" xmlns="http://www.w3.org/2000/svg">
<circle cx="24" cy="24" r="24" fill="#8E8E93"/>
<path d="M27.7599 13.6799C27.4951 14.1542 27.2591 14.644 27.0532 15.1466C25.0302 14.8267 22.9695 14.8267 20.9466 15.1466C20.7407 14.644 20.5047 14.1542 20.2399 13.6799C18.3343 14.0055 16.4818 14.5886 14.7332 15.4133C11.6065 19.9256 10.1885 25.4039 10.7332 30.8666C12.7709 32.3984 15.0578 33.5667 17.4932 34.3199C18.0478 33.5874 18.5427 32.8116 18.9732 31.9999C18.1787 31.707 17.415 31.3363 16.6932 30.8933C16.8912 30.7616 17.0784 30.6144 17.2532 30.4533C19.3578 31.467 21.6638 31.9935 23.9999 31.9935C26.3359 31.9935 28.6419 31.467 30.7466 30.4533C30.9332 30.6133 31.1199 30.7599 31.3066 30.8933C30.5809 31.3328 29.818 31.7076 29.0266 32.0133C29.4392 32.8433 29.9209 33.6372 30.4666 34.3866C32.8989 33.636 35.1819 32.4674 37.2132 30.9333C37.7711 25.4695 36.3519 19.9868 33.2132 15.4799C31.4843 14.6382 29.6501 14.0328 27.7599 13.6799ZM19.5732 27.7466C18.906 27.6987 18.2833 27.3942 17.8358 26.897C17.3883 26.3997 17.1508 25.7485 17.1732 25.0799C17.1474 24.4105 17.3837 23.7574 17.8319 23.2594C18.2801 22.7614 18.9048 22.4579 19.5732 22.4133C20.2417 22.4579 20.8664 22.7614 21.3145 23.2594C21.7627 23.7574 21.999 24.4105 21.9732 25.0799C21.999 25.7494 21.7627 26.4025 21.3145 26.9004C20.8664 27.3984 20.2417 27.702 19.5732 27.7466ZM28.4266 27.7466C27.7593 27.6987 27.1366 27.3942 26.6891 26.897C26.2416 26.3997 26.0042 25.7485 26.0266 25.0799C26.0008 24.4105 26.2371 23.7574 26.6852 23.2594C27.1334 22.7614 27.7581 22.4579 28.4266 22.4133C29.0963 22.4546 29.723 22.7571 30.1718 23.2559C30.6207 23.7546 30.8558 24.4096 30.8266 25.0799C30.8558 25.7503 30.6207 26.4053 30.1718 26.904C29.723 27.4027 29.0963 27.7053 28.4266 27.7466Z" fill="#1F2832"/>
</svg>
