<svg width="20" height="20" viewBox="0 0 20 20" fill="none" xmlns="http://www.w3.org/2000/svg">
<path opacity="0.2" d="M18.3334 9.99996C18.3334 14.5958 14.5951 18.3333 10.0001 18.3333C5.40508 18.3333 1.66675 14.5958 1.66675 9.99996C1.66675 5.40496 5.40508 1.66663 10.0001 1.66663C14.5951 1.66663 18.3334 5.40496 18.3334 9.99996Z" fill="white"/>
<path d="M13.5173 8.79794C13.5173 8.95711 13.4565 9.11711 13.3348 9.23878L10.4431 12.1446C10.3256 12.2621 10.1665 12.3279 9.99982 12.3279C9.83398 12.3279 9.67482 12.2621 9.55732 12.1446L6.66398 9.23878C6.42065 8.99461 6.42065 8.59961 6.66565 8.35544C6.91065 8.11211 7.30648 8.11294 7.54982 8.35711L9.99982 10.8179L12.4498 8.35711C12.6931 8.11294 13.0881 8.11211 13.3331 8.35544C13.4565 8.47711 13.5173 8.63794 13.5173 8.79794Z" fill="white"/>
</svg>
