<svg width="62" height="62" viewBox="0 0 62 62" fill="none" xmlns="http://www.w3.org/2000/svg">
<path d="M27.1444 12.0125C27.0903 11.4737 27.1497 10.9295 27.3189 10.4151C27.488 9.90071 27.7631 9.42745 28.1264 9.02588C28.4897 8.62431 28.9331 8.30333 29.428 8.08366C29.923 7.86398 30.4585 7.75049 31 7.75049C31.5415 7.75049 32.077 7.86398 32.572 8.08366C33.0669 8.30333 33.5103 8.62431 33.8736 9.02588C34.2369 9.42745 34.512 9.90071 34.6811 10.4151C34.8503 10.9295 34.9097 11.4737 34.8556 12.0125L33.3521 36.6188C33.294 37.2022 33.0212 37.7433 32.5865 38.1369C32.1518 38.5304 31.5864 38.7484 31 38.7484C30.4136 38.7484 29.8482 38.5304 29.4135 38.1369C28.9788 37.7433 28.706 37.2022 28.6479 36.6188L27.1444 12.0125ZM27.125 46.5C27.125 45.4723 27.5333 44.4867 28.26 43.76C28.9867 43.0333 29.9723 42.625 31 42.625C32.0277 42.625 33.0133 43.0333 33.74 43.76C34.4667 44.4867 34.875 45.4723 34.875 46.5C34.875 47.5277 34.4667 48.5133 33.74 49.24C33.0133 49.9667 32.0277 50.375 31 50.375C29.9723 50.375 28.9867 49.9667 28.26 49.24C27.5333 48.5133 27.125 47.5277 27.125 46.5Z" fill="#EB5757"/>
</svg>
