<svg width="48" height="48" viewBox="0 0 48 48" fill="none" xmlns="http://www.w3.org/2000/svg">
<circle cx="24" cy="24" r="24" fill="#8E8E93"/>
<path fill-rule="evenodd" clip-rule="evenodd" d="M24.0345 10.6667C16.6892 10.6667 10.7358 16.6201 10.7358 23.9654C10.7358 29.8401 14.5452 34.8254 19.8305 36.5854C20.4958 36.7054 20.7358 36.2961 20.7358 35.9441C20.7358 35.6281 20.7252 34.7907 20.7212 33.6827C17.0212 34.4854 16.2398 31.8987 16.2398 31.8987C15.6372 30.3627 14.7638 29.9534 14.7638 29.9534C13.5572 29.1281 14.8558 29.1467 14.8558 29.1467C16.1918 29.2401 16.8918 30.5174 16.8918 30.5174C18.0785 32.5494 20.0065 31.9627 20.7612 31.6227C20.8825 30.7627 21.2292 30.1761 21.6078 29.8441C18.6558 29.5094 15.5518 28.3681 15.5518 23.2707C15.5518 21.8214 16.0705 20.6321 16.9172 19.7041C16.7825 19.3667 16.3225 18.0134 17.0492 16.1841C17.0492 16.1841 18.1652 15.8254 20.7052 17.5454C21.79 17.2503 22.909 17.0997 24.0332 17.0974C25.1574 17.0992 26.2765 17.2499 27.3612 17.5454C29.9025 15.8241 31.0172 16.1841 31.0172 16.1841C31.7438 18.0134 31.2878 19.3667 31.1492 19.7041C32.0025 20.6321 32.5145 21.8201 32.5145 23.2707C32.5145 28.3814 29.4078 29.5041 26.4452 29.8334C26.9185 30.2441 27.3452 31.0548 27.3452 32.2948C27.3452 34.0734 27.3292 35.5081 27.3292 35.9441C27.3292 36.3001 27.5665 36.7134 28.2452 36.5827C33.5278 34.8201 37.3332 29.8387 37.3332 23.9654C37.3332 16.6201 31.3798 10.6667 24.0345 10.6667Z" fill="#1F2832"/>
</svg>
