<svg width="24" height="33" viewBox="0 0 24 33" fill="none" xmlns="http://www.w3.org/2000/svg">
<path fill-rule="evenodd" clip-rule="evenodd" d="M15.8498 3.33884C16.4808 3.33884 17.1108 3.45767 17.7098 3.72604C21.4008 5.32825 22.7308 10.7357 21.6198 15.4622C20.9898 17.8776 19.9598 20.0819 18.6108 21.8831C16.6798 24.3799 14.5608 26.5963 12.2798 28.5056L12.0298 28.7072L11.7698 28.4922C9.48077 26.5963 7.34977 24.3799 5.40077 21.8697C4.06077 20.0686 3.02977 17.8776 2.38977 15.4622C1.25977 10.7357 2.58977 5.32825 6.32077 3.698C6.61077 3.56448 6.90977 3.47102 7.20977 3.41895H7.32977C7.61077 3.3642 7.88977 3.33884 8.16977 3.33884H8.27977C8.90977 3.3642 9.51977 3.51107 10.1108 3.77944H10.1698C10.2098 3.80481 10.2398 3.83285 10.2598 3.85822C10.4808 3.95302 10.6898 4.05983 10.8898 4.2067L11.2698 4.43368C11.3616 4.49907 11.4647 4.59897 11.5537 4.68532C11.6102 4.74003 11.661 4.78929 11.6998 4.82088C11.7161 4.83374 11.7327 4.84666 11.7494 4.85969C11.8351 4.92652 11.9245 4.99614 11.9998 5.07323C13.1108 3.93967 14.4598 3.32548 15.8498 3.33884ZM18.5098 12.9521C18.9198 12.9374 19.2698 12.4981 19.2998 11.936V11.7771C19.3298 9.90656 18.4808 8.21223 17.1898 7.55799C16.7798 7.36973 16.3298 7.6648 16.1798 8.22558C16.0398 8.78635 16.2598 9.40053 16.6798 9.59947C17.3208 9.91992 17.7498 10.7624 17.7498 11.6957V11.7371C17.7308 12.0428 17.7998 12.3379 17.9398 12.5649C18.0798 12.7919 18.2898 12.9241 18.5098 12.9521Z" fill="#1F2832"/>
</svg>
