<svg width="120" height="36" viewBox="0 0 120 36" fill="none" xmlns="http://www.w3.org/2000/svg">
<rect width="120" height="36" rx="10" fill="#1F2832"/>
<path d="M13.128 22V13.48H14.244V20.944H18.36V22H13.128ZM21.9147 22.12C21.0427 22.12 20.3187 21.824 19.7427 21.232C19.1747 20.64 18.8907 19.896 18.8907 19C18.8907 18.096 19.1667 17.352 19.7187 16.768C20.2787 16.176 21.0187 15.88 21.9387 15.88C22.8667 15.88 23.5947 16.208 24.1227 16.864C24.6507 17.52 24.8827 18.324 24.8187 19.276H19.9347C19.9507 19.82 20.1507 20.276 20.5347 20.644C20.9187 21.004 21.3827 21.184 21.9267 21.184C22.7427 21.184 23.3227 20.848 23.6667 20.176H24.7227C24.5707 20.736 24.2467 21.2 23.7507 21.568C23.2547 21.936 22.6427 22.12 21.9147 22.12ZM23.0907 17.224C22.7627 16.936 22.3667 16.792 21.9027 16.792C21.4387 16.792 21.0227 16.932 20.6547 17.212C20.2947 17.492 20.0707 17.908 19.9827 18.46H23.7267C23.6307 17.916 23.4187 17.504 23.0907 17.224ZM26.3079 22V16H27.3399V16.924C27.7479 16.228 28.3839 15.88 29.2479 15.88C29.9279 15.88 30.4759 16.1 30.8919 16.54C31.3079 16.98 31.5159 17.568 31.5159 18.304V22H30.4959V18.46C30.4959 17.956 30.3679 17.56 30.1119 17.272C29.8559 16.976 29.5119 16.828 29.0799 16.828C28.5839 16.828 28.1679 17.024 27.8319 17.416C27.5039 17.808 27.3399 18.344 27.3399 19.024V22H26.3079ZM35.8463 22.12C35.0143 22.12 34.3143 21.816 33.7463 21.208C33.1863 20.6 32.9063 19.864 32.9063 19C32.9063 18.136 33.1863 17.4 33.7463 16.792C34.3143 16.184 35.0143 15.88 35.8463 15.88C36.2863 15.88 36.6943 15.98 37.0703 16.18C37.4543 16.372 37.7503 16.62 37.9583 16.924V13H38.9903V22H37.9583V21.076C37.7503 21.38 37.4543 21.632 37.0703 21.832C36.6943 22.024 36.2863 22.12 35.8463 22.12ZM36.0023 21.172C36.5943 21.172 37.0823 20.964 37.4663 20.548C37.8503 20.132 38.0423 19.616 38.0423 19C38.0423 18.384 37.8503 17.868 37.4663 17.452C37.0823 17.036 36.5943 16.828 36.0023 16.828C35.4023 16.828 34.9103 17.036 34.5263 17.452C34.1423 17.868 33.9503 18.384 33.9503 19C33.9503 19.616 34.1423 20.132 34.5263 20.548C34.9103 20.964 35.4023 21.172 36.0023 21.172ZM41.9769 14.188C41.8409 14.324 41.6689 14.392 41.4609 14.392C41.2529 14.392 41.0769 14.324 40.9329 14.188C40.7889 14.044 40.7169 13.868 40.7169 13.66C40.7169 13.46 40.7889 13.288 40.9329 13.144C41.0769 13 41.2529 12.928 41.4609 12.928C41.6689 12.928 41.8409 13 41.9769 13.144C42.1129 13.288 42.1809 13.46 42.1809 13.66C42.1809 13.868 42.1129 14.044 41.9769 14.188ZM40.9329 22V16H41.9649V22H40.9329ZM43.9212 22V16H44.9532V16.924C45.3612 16.228 45.9972 15.88 46.8612 15.88C47.5412 15.88 48.0892 16.1 48.5052 16.54C48.9212 16.98 49.1292 17.568 49.1292 18.304V22H48.1092V18.46C48.1092 17.956 47.9812 17.56 47.7252 17.272C47.4692 16.976 47.1252 16.828 46.6932 16.828C46.1972 16.828 45.7812 17.024 45.4452 17.416C45.1172 17.808 44.9532 18.344 44.9532 19.024V22H43.9212ZM53.6276 24.628C52.8356 24.628 52.1756 24.432 51.6476 24.04C51.1276 23.656 50.8196 23.16 50.7236 22.552H51.7316C51.9956 23.328 52.6356 23.716 53.6516 23.716C54.2196 23.716 54.6756 23.532 55.0196 23.164C55.3716 22.804 55.5476 22.296 55.5476 21.64V20.932C55.3316 21.252 55.0396 21.508 54.6716 21.7C54.3036 21.892 53.8996 21.988 53.4596 21.988C52.6196 21.988 51.9196 21.696 51.3596 21.112C50.7996 20.52 50.5196 19.792 50.5196 18.928C50.5196 18.072 50.7996 17.352 51.3596 16.768C51.9276 16.176 52.6276 15.88 53.4596 15.88C53.8996 15.88 54.3036 15.976 54.6716 16.168C55.0396 16.36 55.3316 16.612 55.5476 16.924V16H56.5796V21.628C56.5796 22.588 56.2996 23.328 55.7396 23.848C55.1876 24.368 54.4836 24.628 53.6276 24.628ZM52.1396 20.44C52.5156 20.832 53.0036 21.028 53.6036 21.028C54.2036 21.028 54.6916 20.832 55.0676 20.44C55.4436 20.04 55.6316 19.536 55.6316 18.928C55.6316 18.32 55.4396 17.82 55.0556 17.428C54.6796 17.028 54.1956 16.828 53.6036 16.828C53.0116 16.828 52.5236 17.028 52.1396 17.428C51.7636 17.82 51.5756 18.32 51.5756 18.928C51.5756 19.536 51.7636 20.04 52.1396 20.44ZM62.4493 24.508H61.4173V16H62.4493V16.924C62.6573 16.62 62.9493 16.372 63.3253 16.18C63.7093 15.98 64.1213 15.88 64.5613 15.88C65.3933 15.88 66.0893 16.184 66.6493 16.792C67.2173 17.4 67.5013 18.136 67.5013 19C67.5013 19.864 67.2173 20.6 66.6493 21.208C66.0893 21.816 65.3933 22.12 64.5613 22.12C64.1213 22.12 63.7093 22.024 63.3253 21.832C62.9493 21.632 62.6573 21.38 62.4493 21.076V24.508ZM62.9413 20.548C63.3253 20.964 63.8133 21.172 64.4053 21.172C64.9973 21.172 65.4853 20.964 65.8693 20.548C66.2533 20.132 66.4453 19.616 66.4453 19C66.4453 18.384 66.2533 17.868 65.8693 17.452C65.4853 17.036 64.9973 16.828 64.4053 16.828C63.8133 16.828 63.3253 17.036 62.9413 17.452C62.5573 17.868 62.3653 18.384 62.3653 19C62.3653 19.616 62.5573 20.132 62.9413 20.548ZM68.9876 22V16H70.0196V17.164C70.1316 16.796 70.3476 16.5 70.6676 16.276C70.9956 16.052 71.3396 15.94 71.6996 15.94C71.8756 15.94 72.0316 15.956 72.1676 15.988V17.056C72.0236 16.992 71.8356 16.96 71.6036 16.96C71.1876 16.96 70.8196 17.14 70.4996 17.5C70.1796 17.86 70.0196 18.368 70.0196 19.024V22H68.9876ZM75.8352 22.12C74.9312 22.12 74.1792 21.82 73.5792 21.22C72.9872 20.612 72.6912 19.872 72.6912 19C72.6912 18.128 72.9872 17.392 73.5792 16.792C74.1792 16.184 74.9312 15.88 75.8352 15.88C76.7312 15.88 77.4752 16.184 78.0672 16.792C78.6672 17.392 78.9672 18.128 78.9672 19C78.9672 19.872 78.6672 20.612 78.0672 21.22C77.4752 21.82 76.7312 22.12 75.8352 22.12ZM74.3232 20.536C74.7152 20.952 75.2192 21.16 75.8352 21.16C76.4512 21.16 76.9512 20.952 77.3352 20.536C77.7192 20.12 77.9112 19.608 77.9112 19C77.9112 18.392 77.7192 17.88 77.3352 17.464C76.9512 17.048 76.4512 16.84 75.8352 16.84C75.2192 16.84 74.7152 17.048 74.3232 17.464C73.9392 17.88 73.7472 18.392 73.7472 19C73.7472 19.608 73.9392 20.12 74.3232 20.536ZM82.6711 22.06C82.1191 22.06 81.6751 21.904 81.3391 21.592C81.0031 21.28 80.8351 20.824 80.8351 20.224V16.948H79.5631V16H80.8351V14.332H81.8671V16H83.5951V16.948H81.8671V20.092C81.8671 20.468 81.9471 20.732 82.1071 20.884C82.2671 21.036 82.5191 21.112 82.8631 21.112C83.1671 21.112 83.4111 21.072 83.5951 20.992V21.916C83.3071 22.012 82.9991 22.06 82.6711 22.06ZM87.4954 22.12C86.5914 22.12 85.8394 21.82 85.2394 21.22C84.6474 20.612 84.3514 19.872 84.3514 19C84.3514 18.128 84.6474 17.392 85.2394 16.792C85.8394 16.184 86.5914 15.88 87.4954 15.88C88.3914 15.88 89.1354 16.184 89.7274 16.792C90.3274 17.392 90.6274 18.128 90.6274 19C90.6274 19.872 90.3274 20.612 89.7274 21.22C89.1354 21.82 88.3914 22.12 87.4954 22.12ZM85.9834 20.536C86.3754 20.952 86.8794 21.16 87.4954 21.16C88.1114 21.16 88.6114 20.952 88.9954 20.536C89.3794 20.12 89.5714 19.608 89.5714 19C89.5714 18.392 89.3794 17.88 88.9954 17.464C88.6114 17.048 88.1114 16.84 87.4954 16.84C86.8794 16.84 86.3754 17.048 85.9834 17.464C85.5994 17.88 85.4074 18.392 85.4074 19C85.4074 19.608 85.5994 20.12 85.9834 20.536ZM94.7727 22.12C93.8687 22.12 93.1207 21.82 92.5287 21.22C91.9367 20.612 91.6407 19.872 91.6407 19C91.6407 18.128 91.9367 17.392 92.5287 16.792C93.1207 16.184 93.8687 15.88 94.7727 15.88C95.5167 15.88 96.1607 16.088 96.7047 16.504C97.2487 16.912 97.6127 17.448 97.7967 18.112H96.6927C96.5487 17.72 96.3087 17.408 95.9727 17.176C95.6367 16.944 95.2367 16.828 94.7727 16.828C94.1567 16.828 93.6527 17.036 93.2607 17.452C92.8767 17.868 92.6847 18.384 92.6847 19C92.6847 19.616 92.8767 20.132 93.2607 20.548C93.6527 20.964 94.1567 21.172 94.7727 21.172C95.2367 21.172 95.6367 21.056 95.9727 20.824C96.3087 20.592 96.5487 20.28 96.6927 19.888H97.7967C97.6207 20.552 97.2607 21.092 96.7167 21.508C96.1727 21.916 95.5247 22.12 94.7727 22.12ZM101.827 22.12C100.923 22.12 100.171 21.82 99.5714 21.22C98.9794 20.612 98.6834 19.872 98.6834 19C98.6834 18.128 98.9794 17.392 99.5714 16.792C100.171 16.184 100.923 15.88 101.827 15.88C102.723 15.88 103.467 16.184 104.059 16.792C104.659 17.392 104.959 18.128 104.959 19C104.959 19.872 104.659 20.612 104.059 21.22C103.467 21.82 102.723 22.12 101.827 22.12ZM100.315 20.536C100.707 20.952 101.211 21.16 101.827 21.16C102.443 21.16 102.943 20.952 103.327 20.536C103.711 20.12 103.903 19.608 103.903 19C103.903 18.392 103.711 17.88 103.327 17.464C102.943 17.048 102.443 16.84 101.827 16.84C101.211 16.84 100.707 17.048 100.315 17.464C99.9314 17.88 99.7394 18.392 99.7394 19C99.7394 19.608 99.9314 20.12 100.315 20.536ZM106.441 22V13H107.473V22H106.441Z" fill="white"/>
</svg>
