<svg width="267" height="292" viewBox="0 0 267 292" fill="none" xmlns="http://www.w3.org/2000/svg">
<g clip-path="url(#clip0_99_5418)">
<g filter="url(#filter0_dd_99_5418)">
<path d="M0 10C0 4.47715 4.47715 0 10 0H257C262.523 0 267 4.47715 267 10V283.292C267 288.815 262.523 293.292 257 293.292H10C4.47715 293.292 0 288.815 0 283.292V10Z" fill="white"/>
<path d="M0.5 10C0.5 4.75329 4.75329 0.5 10 0.5H257C262.247 0.5 266.5 4.75329 266.5 10V283.292C266.5 288.539 262.247 292.792 257 292.792H10C4.75329 292.792 0.5 288.539 0.5 283.292V10Z" stroke="url(#paint0_linear_99_5418)"/>
</g>
<path d="M20.5433 38.0391V24.5213H23.3039V35.4117H29.0918V38.0391H20.5433ZM32.0024 26.9583C31.5582 26.9583 31.171 26.7997 30.841 26.4824C30.511 26.1524 30.346 25.7589 30.346 25.3019C30.346 24.845 30.511 24.4579 30.841 24.1406C31.171 23.8105 31.5582 23.6455 32.0024 23.6455C32.472 23.6455 32.8655 23.8105 33.1828 24.1406C33.5128 24.4579 33.6778 24.845 33.6778 25.3019C33.6778 25.7589 33.5128 26.1524 33.1828 26.4824C32.8655 26.7997 32.472 26.9583 32.0024 26.9583ZM30.7077 38.0391V28.5195H33.3161V38.0391H30.7077ZM45.0357 42.0182H42.4273V36.9729C42.1735 37.3156 41.8054 37.6139 41.3231 37.8677C40.8407 38.1216 40.2949 38.2485 39.6857 38.2485C38.4291 38.2485 37.3693 37.7598 36.5062 36.7825C35.6431 35.8051 35.2115 34.6374 35.2115 33.2793C35.2115 31.9212 35.6431 30.7535 36.5062 29.7761C37.3693 28.7988 38.4291 28.3101 39.6857 28.3101C40.2949 28.3101 40.8407 28.437 41.3231 28.6909C41.8054 28.9447 42.1735 29.243 42.4273 29.5857V28.5195H45.0357V42.0182ZM38.4862 35.1451C38.9305 35.6274 39.5143 35.8686 40.2378 35.8686C40.9613 35.8686 41.5388 35.6274 41.9704 35.1451C42.4146 34.6628 42.6367 34.0409 42.6367 33.2793C42.6367 32.5177 42.4146 31.8958 41.9704 31.4135C41.5388 30.9312 40.9613 30.69 40.2378 30.69C39.5143 30.69 38.9305 30.9312 38.4862 31.4135C38.0547 31.8958 37.8389 32.5177 37.8389 33.2793C37.8389 34.0409 38.0547 34.6628 38.4862 35.1451ZM51.0365 38.2485C49.9069 38.2485 49.0247 37.8677 48.3901 37.1061C47.7682 36.3446 47.4572 35.3228 47.4572 34.0409V28.5195H50.0655V33.603C50.0655 35.1134 50.605 35.8686 51.6839 35.8686C52.2931 35.8686 52.7691 35.6401 53.1118 35.1832C53.4672 34.7263 53.6449 34.0536 53.6449 33.1651V28.5195H56.2532V38.0391H53.6449V36.9538C53.061 37.8169 52.1916 38.2485 51.0365 38.2485ZM60.059 26.9583C59.6147 26.9583 59.2276 26.7997 58.8976 26.4824C58.5676 26.1524 58.4026 25.7589 58.4026 25.3019C58.4026 24.845 58.5676 24.4579 58.8976 24.1406C59.2276 23.8105 59.6147 23.6455 60.059 23.6455C60.5286 23.6455 60.9221 23.8105 61.2394 24.1406C61.5694 24.4579 61.7344 24.845 61.7344 25.3019C61.7344 25.7589 61.5694 26.1524 61.2394 26.4824C60.9221 26.7997 60.5286 26.9583 60.059 26.9583ZM58.7643 38.0391V28.5195H61.3727V38.0391H58.7643ZM67.7423 38.2485C66.4857 38.2485 65.4258 37.7598 64.5627 36.7825C63.6996 35.8051 63.2681 34.6374 63.2681 33.2793C63.2681 31.9212 63.6996 30.7535 64.5627 29.7761C65.4258 28.7988 66.4857 28.3101 67.7423 28.3101C68.3515 28.3101 68.8973 28.437 69.3796 28.6909C69.8619 28.9447 70.23 29.243 70.4839 29.5857V23.7598H73.0922V38.0391H70.4839V36.9729C70.23 37.3156 69.8619 37.6139 69.3796 37.8677C68.8973 38.1216 68.3515 38.2485 67.7423 38.2485ZM66.5428 35.1451C66.987 35.6274 67.5709 35.8686 68.2944 35.8686C69.0179 35.8686 69.5954 35.6274 70.0269 35.1451C70.4712 34.6628 70.6933 34.0409 70.6933 33.2793C70.6933 32.5177 70.4712 31.8958 70.0269 31.4135C69.5954 30.9312 69.0179 30.69 68.2944 30.69C67.5709 30.69 66.987 30.9312 66.5428 31.4135C66.1112 31.8958 65.8955 32.5177 65.8955 33.2793C65.8955 34.0409 66.1112 34.6628 66.5428 35.1451ZM79.4929 38.2485C78.2363 38.2485 77.1765 37.7598 76.3134 36.7825C75.4503 35.8051 75.0187 34.6374 75.0187 33.2793C75.0187 31.9212 75.4503 30.7535 76.3134 29.7761C77.1765 28.7988 78.2363 28.3101 79.4929 28.3101C80.1022 28.3101 80.648 28.437 81.1303 28.6909C81.6126 28.9447 81.9807 29.243 82.2345 29.5857V28.5195H84.8429V38.0391H82.2345V36.9729C81.9807 37.3156 81.6126 37.6139 81.1303 37.8677C80.648 38.1216 80.1022 38.2485 79.4929 38.2485ZM78.2935 35.1451C78.7377 35.6274 79.3216 35.8686 80.0451 35.8686C80.7685 35.8686 81.3461 35.6274 81.7776 35.1451C82.2218 34.6628 82.444 34.0409 82.444 33.2793C82.444 32.5177 82.2218 31.8958 81.7776 31.4135C81.3461 30.9312 80.7685 30.69 80.0451 30.69C79.3216 30.69 78.7377 30.9312 78.2935 31.4135C77.8619 31.8958 77.6461 32.5177 77.6461 33.2793C77.6461 34.0409 77.8619 34.6628 78.2935 35.1451ZM91.9861 38.1533C90.9199 38.1533 90.0441 37.8614 89.3587 37.2775C88.686 36.6809 88.3496 35.8242 88.3496 34.7072V30.8042H86.4267V28.5195H88.3496V25.8731H90.958V28.5195H93.6425V30.8042H90.958V34.1932C90.958 34.777 91.0849 35.1959 91.3388 35.4498C91.5926 35.6909 92.0051 35.8115 92.5763 35.8115C92.9825 35.8115 93.3379 35.7544 93.6425 35.6401V37.9439C93.1856 38.0835 92.6334 38.1533 91.9861 38.1533ZM99.7525 38.2485C98.2929 38.2485 97.0934 37.7789 96.1542 36.8396C95.2276 35.9003 94.7643 34.7072 94.7643 33.2603C94.7643 31.8387 95.2339 30.6583 96.1732 29.719C97.1252 28.7797 98.3246 28.3101 99.7716 28.3101C101.231 28.3101 102.443 28.8115 103.408 29.8142C104.373 30.8042 104.817 32.1623 104.741 33.8886H97.3155C97.3663 34.4851 97.6138 34.9865 98.0581 35.3926C98.5023 35.7861 99.1116 35.9828 99.8858 35.9828C100.355 35.9828 100.768 35.894 101.123 35.7163C101.491 35.5259 101.752 35.2657 101.904 34.9357H104.627C104.347 35.913 103.763 36.7127 102.875 37.3346C101.986 37.9439 100.946 38.2485 99.7525 38.2485ZM99.6954 30.4234C99.0989 30.4234 98.5975 30.5821 98.1913 30.8994C97.7979 31.204 97.5377 31.6292 97.4107 32.175H101.885C101.745 31.5785 101.466 31.1406 101.047 30.8613C100.641 30.5694 100.19 30.4234 99.6954 30.4234Z" fill="#0C0B0E"/>
<path d="M245.26 27.3681C245.437 27.1911 245.437 26.904 245.26 26.727C245.083 26.55 244.796 26.55 244.618 26.727L240.708 30.6374L236.798 26.727C236.621 26.55 236.334 26.55 236.157 26.727C235.98 26.904 235.98 27.1911 236.157 27.3681L240.067 31.2784L236.157 35.1888C235.98 35.3658 235.98 35.6529 236.157 35.8299C236.334 36.0069 236.621 36.0069 236.798 35.8299L240.708 31.9195L244.618 35.8299C244.796 36.0069 245.083 36.0069 245.26 35.8299C245.437 35.6529 245.437 35.3658 245.26 35.1888L241.349 31.2784L245.26 27.3681Z" fill="#0C0B0E"/>
<path d="M19.8062 79.1698V73.3765H21.4707C22.3574 73.3765 23.0918 73.6512 23.6738 74.2006C24.2613 74.75 24.5551 75.4409 24.5551 76.2731C24.5551 77.1054 24.2613 77.7963 23.6738 78.3457C23.0918 78.8951 22.3574 79.1698 21.4707 79.1698H19.8062ZM20.565 78.4599H21.4707C22.1616 78.4599 22.7192 78.2559 23.1435 77.8479C23.5732 77.4345 23.7881 76.9096 23.7881 76.2731C23.7881 75.6367 23.5732 75.1145 23.1435 74.7065C22.7192 74.2931 22.1616 74.0864 21.4707 74.0864H20.565V78.4599ZM27.3187 79.2514C26.7258 79.2514 26.2335 79.0501 25.8419 78.6476C25.4556 78.245 25.2625 77.7392 25.2625 77.1299C25.2625 76.5152 25.4502 76.0093 25.8255 75.6122C26.2063 75.2097 26.7095 75.0084 27.3351 75.0084C27.9661 75.0084 28.4611 75.2314 28.8201 75.6775C29.1791 76.1236 29.3369 76.6702 29.2934 77.3176H25.9724C25.9833 77.6875 26.1193 77.9975 26.3804 78.2478C26.6415 78.4926 26.957 78.6149 27.3269 78.6149C27.8818 78.6149 28.2761 78.3865 28.51 77.9295H29.2281C29.1247 78.3103 28.9044 78.6258 28.5672 78.8761C28.2299 79.1263 27.8138 79.2514 27.3187 79.2514ZM28.1184 75.9223C27.8954 75.7265 27.6261 75.6285 27.3106 75.6285C26.9951 75.6285 26.7122 75.7237 26.462 75.9141C26.2172 76.1045 26.0649 76.3874 26.0051 76.7627H28.5508C28.4856 76.3928 28.3414 76.1127 28.1184 75.9223ZM32.4438 79.2514C32.1446 79.2514 31.8645 79.1861 31.6034 79.0556C31.3477 78.9196 31.1491 78.7482 31.0077 78.5415V79.1698H30.306V73.0501H31.0077V75.7183C31.1491 75.5116 31.3477 75.343 31.6034 75.2124C31.8645 75.0764 32.1446 75.0084 32.4438 75.0084C33.0095 75.0084 33.4828 75.2151 33.8636 75.6285C34.2498 76.042 34.4429 76.5424 34.4429 77.1299C34.4429 77.7174 34.2498 78.2178 33.8636 78.6313C33.4828 79.0447 33.0095 79.2514 32.4438 79.2514ZM31.3423 78.1825C31.6034 78.4654 31.9352 78.6068 32.3377 78.6068C32.7403 78.6068 33.0721 78.4654 33.3332 78.1825C33.5943 77.8996 33.7249 77.5488 33.7249 77.1299C33.7249 76.711 33.5943 76.3602 33.3332 76.0773C33.0721 75.7944 32.7403 75.653 32.3377 75.653C31.9352 75.653 31.6034 75.7944 31.3423 76.0773C31.0811 76.3602 30.9506 76.711 30.9506 77.1299C30.9506 77.5488 31.0811 77.8996 31.3423 78.1825ZM36.9568 79.2106C36.5815 79.2106 36.2796 79.1045 36.0511 78.8924C35.8226 78.6802 35.7084 78.3702 35.7084 77.9622V75.7346H34.8435V75.09H35.7084V73.9558H36.4101V75.09H37.5851V75.7346H36.4101V77.8724C36.4101 78.1281 36.4645 78.3076 36.5733 78.411C36.6821 78.5143 36.8535 78.566 37.0874 78.566C37.2941 78.566 37.46 78.5388 37.5851 78.4844V79.1127C37.3893 79.178 37.1798 79.2106 36.9568 79.2106Z" fill="#605D5D"/>
<path d="M19.1526 91.5687C19.1526 89.1278 21.1314 87.149 23.5724 87.149H243.428C245.869 87.149 247.848 89.1278 247.848 91.5688V118.767C247.848 121.208 245.869 123.187 243.428 123.187H23.5724C21.1314 123.187 19.1526 121.208 19.1526 118.767V91.5687Z" stroke="#605D5D" stroke-width="0.226655"/>
<path opacity="0.2" d="M228.015 105.621C228.015 108.121 225.982 110.154 223.482 110.154C220.983 110.154 218.949 108.121 218.949 105.621C218.949 103.122 220.983 101.088 223.482 101.088C225.982 101.088 228.015 103.122 228.015 105.621Z" fill="#0C0B0E"/>
<path d="M225.395 104.968C225.395 105.054 225.362 105.141 225.296 105.207L223.723 106.788C223.659 106.852 223.573 106.888 223.482 106.888C223.392 106.888 223.305 106.852 223.241 106.788L221.667 105.207C221.535 105.075 221.535 104.86 221.668 104.727C221.801 104.595 222.017 104.595 222.149 104.728L223.482 106.066L224.815 104.728C224.947 104.595 225.162 104.595 225.295 104.727C225.362 104.793 225.395 104.881 225.395 104.968Z" fill="#0C0B0E"/>
<g clip-path="url(#clip1_99_5418)">
<path d="M172.28 97.9276V97.9347C172.287 97.9704 172.287 98.0133 172.287 98.0562V103.208C172.28 103.237 172.258 103.244 172.237 103.258C172.087 103.33 171.944 103.394 171.794 103.458C171.587 103.551 171.372 103.651 171.165 103.744L170.415 104.087C170.208 104.18 170 104.273 169.8 104.366C169.557 104.48 169.307 104.587 169.064 104.702C168.857 104.795 168.65 104.895 168.435 104.988C168.264 105.066 168.092 105.138 167.928 105.216C167.914 105.223 167.899 105.231 167.885 105.231C167.878 105.231 167.878 105.231 167.871 105.223L168.064 104.902C168.435 104.287 168.8 103.68 169.171 103.065C169.564 102.408 169.965 101.751 170.358 101.093C170.722 100.486 171.094 99.8784 171.458 99.271C171.722 98.8279 171.994 98.3849 172.258 97.9419C172.266 97.9276 172.273 97.9204 172.273 97.9061H172.28C172.273 97.9133 172.28 97.9204 172.28 97.9276Z" fill="#8A92B2"/>
<path d="M176.667 105.223L176.674 105.231L175.624 105.852L172.323 107.803C172.308 107.81 172.294 107.817 172.287 107.825C172.265 107.825 172.265 107.803 172.265 107.796V107.732V103.316C172.265 103.294 172.265 103.266 172.273 103.244C172.28 103.215 172.301 103.223 172.323 103.23C172.415 103.273 172.515 103.316 172.608 103.358C172.887 103.487 173.166 103.616 173.444 103.737C173.687 103.844 173.923 103.959 174.166 104.066C174.409 104.173 174.652 104.287 174.895 104.395C175.102 104.487 175.317 104.587 175.524 104.68C175.731 104.773 175.945 104.873 176.153 104.966C176.317 105.038 176.481 105.116 176.646 105.188C176.646 105.209 176.653 105.216 176.667 105.223Z" fill="#454A75"/>
<path d="M172.28 112.262C172.28 112.269 172.272 112.276 172.272 112.283H172.265C172.265 112.269 172.251 112.262 172.244 112.248C171.801 111.626 171.358 110.997 170.915 110.376C170.465 109.74 170.007 109.096 169.557 108.46C169.121 107.846 168.678 107.224 168.242 106.61C168.128 106.445 168.014 106.288 167.899 106.124C167.892 106.11 167.885 106.102 167.871 106.081C167.892 106.081 167.906 106.095 167.913 106.102C168.535 106.467 169.15 106.831 169.771 107.196C170.486 107.617 171.193 108.039 171.908 108.46L172.272 108.675C172.287 108.689 172.287 108.703 172.287 108.718V112.162C172.287 112.198 172.287 112.233 172.28 112.262Z" fill="#8A92B2"/>
<path d="M167.864 105.238V105.231C168.092 105.131 168.314 105.023 168.542 104.923C168.835 104.788 169.128 104.659 169.421 104.523C169.643 104.423 169.871 104.316 170.093 104.216C170.422 104.066 170.743 103.923 171.072 103.773C171.294 103.673 171.515 103.573 171.744 103.466C171.901 103.394 172.065 103.323 172.222 103.251C172.237 103.244 172.258 103.237 172.265 103.223C172.272 103.223 172.272 103.23 172.265 103.237V107.775C172.265 107.796 172.258 107.817 172.272 107.832C172.258 107.853 172.244 107.832 172.237 107.825C172.172 107.789 172.108 107.753 172.044 107.71C170.665 106.896 169.278 106.074 167.899 105.259C167.892 105.252 167.878 105.245 167.864 105.238Z" fill="#62688F"/>
<path d="M176.653 106.081H176.66C176.66 106.095 176.646 106.11 176.639 106.124C175.324 107.975 174.009 109.832 172.694 111.683C172.558 111.876 172.415 112.069 172.28 112.262C172.272 112.255 172.272 112.248 172.272 112.241V112.198V108.732V108.668C172.573 108.489 172.866 108.318 173.166 108.139C174.323 107.453 175.481 106.774 176.631 106.088C176.639 106.095 176.646 106.088 176.653 106.081Z" fill="#62688F"/>
<path d="M172.272 103.237V103.223V103.18V97.992C172.272 97.9705 172.265 97.9563 172.279 97.9348C173.73 100.343 175.181 102.744 176.624 105.152C176.638 105.173 176.66 105.202 176.667 105.231C176.567 105.195 176.474 105.145 176.381 105.102C176.267 105.052 176.145 104.995 176.031 104.945C175.96 104.909 175.881 104.881 175.81 104.845C175.688 104.788 175.567 104.738 175.445 104.68C175.374 104.652 175.302 104.616 175.231 104.58L174.759 104.366C174.68 104.33 174.602 104.295 174.516 104.259L174.173 104.109C174.102 104.08 174.03 104.044 173.959 104.009L173.487 103.794C173.409 103.759 173.33 103.723 173.244 103.687L172.901 103.537C172.823 103.501 172.751 103.466 172.673 103.43C172.537 103.366 172.401 103.301 172.258 103.244C172.279 103.237 172.272 103.237 172.272 103.237Z" fill="#62688F"/>
</g>
<path d="M186.314 110.102V99.8027H192.32V101.079H187.663V104.198H191.449V105.475H187.663V108.825H192.32V110.102H186.314ZM196.83 110.174C196.163 110.174 195.626 109.986 195.22 109.609C194.814 109.232 194.611 108.68 194.611 107.955V103.995H193.073V102.849H194.611V100.833H195.858V102.849H197.947V103.995H195.858V107.795C195.858 108.25 195.955 108.569 196.148 108.753C196.342 108.937 196.647 109.028 197.062 109.028C197.43 109.028 197.725 108.98 197.947 108.883V110C197.599 110.116 197.227 110.174 196.83 110.174ZM200.788 110.102H199.541V99.2225H200.788V103.966C201.282 103.125 202.05 102.704 203.095 102.704C203.917 102.704 204.579 102.97 205.082 103.502C205.585 104.034 205.836 104.744 205.836 105.634V110.102H204.603V105.823C204.603 105.213 204.449 104.735 204.139 104.387C203.83 104.029 203.414 103.85 202.892 103.85C202.292 103.85 201.789 104.087 201.383 104.561C200.987 105.035 200.788 105.682 200.788 106.504V110.102Z" fill="#0C0B0E"/>
<path d="M44.0946 112.592C42.6095 112.592 41.3974 112.09 40.4581 111.087C39.5189 110.085 39.0492 108.803 39.0492 107.242V103.967C39.0492 102.418 39.5189 101.143 40.4581 100.14C41.3974 99.1372 42.6095 98.6359 44.0946 98.6359C45.5669 98.6359 46.7727 99.1372 47.712 100.14C48.6513 101.143 49.1209 102.418 49.1209 103.967V107.242C49.1209 108.803 48.6513 110.085 47.712 111.087C46.7727 112.09 45.5669 112.592 44.0946 112.592ZM42.324 109.279C42.7682 109.774 43.3584 110.021 44.0946 110.021C44.8308 110.021 45.4146 109.774 45.8462 109.279C46.2904 108.784 46.5125 108.105 46.5125 107.242V103.967C46.5125 103.104 46.2904 102.431 45.8462 101.949C45.4146 101.454 44.8308 101.206 44.0946 101.206C43.3584 101.206 42.7682 101.454 42.324 101.949C41.8797 102.431 41.6576 103.104 41.6576 103.967V107.242C41.6576 108.105 41.8797 108.784 42.324 109.279ZM52.6799 112.534C52.1468 112.534 51.6962 112.35 51.3281 111.982C50.96 111.614 50.776 111.164 50.776 110.63C50.776 110.097 50.96 109.647 51.3281 109.279C51.6962 108.911 52.1468 108.727 52.6799 108.727C53.2003 108.727 53.6445 108.917 54.0126 109.298C54.3934 109.666 54.5838 110.11 54.5838 110.63C54.5838 111.151 54.3934 111.601 54.0126 111.982C53.6445 112.35 53.2003 112.534 52.6799 112.534ZM61.3115 112.592C59.8265 112.592 58.6143 112.09 57.6751 111.087C56.7358 110.085 56.2662 108.803 56.2662 107.242V103.967C56.2662 102.418 56.7358 101.143 57.6751 100.14C58.6143 99.1372 59.8265 98.6359 61.3115 98.6359C62.7839 98.6359 63.9897 99.1372 64.929 100.14C65.8682 101.143 66.3378 102.418 66.3378 103.967V107.242C66.3378 108.803 65.8682 110.085 64.929 111.087C63.9897 112.09 62.7839 112.592 61.3115 112.592ZM59.5409 109.279C59.9852 109.774 60.5754 110.021 61.3115 110.021C62.0477 110.021 62.6316 109.774 63.0631 109.279C63.5074 108.784 63.7295 108.105 63.7295 107.242V103.967C63.7295 103.104 63.5074 102.431 63.0631 101.949C62.6316 101.454 62.0477 101.206 61.3115 101.206C60.5754 101.206 59.9852 101.454 59.5409 101.949C59.0967 102.431 58.8745 103.104 58.8745 103.967V107.242C58.8745 108.105 59.0967 108.784 59.5409 109.279Z" fill="#0C0B0E"/>
<path d="M22.4173 145.904C21.5632 145.904 20.8479 145.619 20.2713 145.048C19.7001 144.471 19.4145 143.758 19.4145 142.91C19.4145 142.061 19.7001 141.351 20.2713 140.78C20.8479 140.203 21.5632 139.915 22.4173 139.915C23.1135 139.915 23.7146 140.111 24.2205 140.503C24.7319 140.894 25.0555 141.368 25.1915 141.922H24.3919C24.2559 141.547 24.0084 141.24 23.6494 141C23.2958 140.756 22.8851 140.633 22.4173 140.633C21.7754 140.633 21.2396 140.854 20.8098 141.294C20.3855 141.729 20.1734 142.268 20.1734 142.91C20.1734 143.552 20.3855 144.093 20.8098 144.534C21.2396 144.969 21.7754 145.186 22.4173 145.186C22.8851 145.186 23.2958 145.067 23.6494 144.827C24.0084 144.582 24.2559 144.272 24.3919 143.897H25.1915C25.0555 144.452 24.7319 144.925 24.2205 145.317C23.7146 145.708 23.1135 145.904 22.4173 145.904ZM27.942 145.888C27.3273 145.888 26.816 145.684 26.408 145.276C26.0055 144.863 25.8042 144.359 25.8042 143.766C25.8042 143.174 26.0055 142.673 26.408 142.265C26.816 141.852 27.3273 141.645 27.942 141.645C28.5512 141.645 29.0571 141.852 29.4597 142.265C29.8677 142.673 30.0717 143.174 30.0717 143.766C30.0717 144.359 29.8677 144.863 29.4597 145.276C29.0571 145.684 28.5512 145.888 27.942 145.888ZM26.9139 144.811C27.1804 145.094 27.5231 145.235 27.942 145.235C28.3609 145.235 28.7008 145.094 28.9619 144.811C29.2231 144.528 29.3536 144.18 29.3536 143.766C29.3536 143.353 29.2231 143.005 28.9619 142.722C28.7008 142.439 28.3609 142.298 27.942 142.298C27.5231 142.298 27.1804 142.439 26.9139 142.722C26.6528 143.005 26.5222 143.353 26.5222 143.766C26.5222 144.18 26.6528 144.528 26.9139 144.811ZM31.0789 145.806V139.687H31.7806V145.806H31.0789ZM33.1108 145.806V139.687H33.8126V145.806H33.1108ZM36.8237 145.888C36.2579 145.888 35.7819 145.681 35.3957 145.268C35.0149 144.854 34.8246 144.354 34.8246 143.766C34.8246 143.179 35.0149 142.679 35.3957 142.265C35.7819 141.852 36.2579 141.645 36.8237 141.645C37.1228 141.645 37.4003 141.713 37.6559 141.849C37.917 141.98 38.1183 142.148 38.2597 142.355V141.727H38.9615V145.806H38.2597V145.178C38.1183 145.385 37.917 145.556 37.6559 145.692C37.4003 145.823 37.1228 145.888 36.8237 145.888ZM36.9297 145.243C37.3323 145.243 37.6641 145.102 37.9252 144.819C38.1863 144.536 38.3169 144.185 38.3169 143.766C38.3169 143.348 38.1863 142.997 37.9252 142.714C37.6641 142.431 37.3323 142.29 36.9297 142.29C36.5217 142.29 36.1872 142.431 35.9261 142.714C35.665 142.997 35.5344 143.348 35.5344 143.766C35.5344 144.185 35.665 144.536 35.9261 144.819C36.1872 145.102 36.5217 145.243 36.9297 145.243ZM41.8653 145.847C41.49 145.847 41.1881 145.741 40.9596 145.529C40.7311 145.317 40.6169 145.007 40.6169 144.599V142.371H39.752V141.727H40.6169V140.592H41.3186V141.727H42.4936V142.371H41.3186V144.509C41.3186 144.765 41.373 144.944 41.4818 145.048C41.5906 145.151 41.762 145.203 41.9959 145.203C42.2026 145.203 42.3685 145.175 42.4936 145.121V145.749C42.2978 145.815 42.0884 145.847 41.8653 145.847ZM45.0722 145.888C44.4793 145.888 43.987 145.687 43.5953 145.284C43.2091 144.882 43.016 144.376 43.016 143.766C43.016 143.152 43.2037 142.646 43.579 142.249C43.9598 141.846 44.463 141.645 45.0886 141.645C45.7196 141.645 46.2146 141.868 46.5736 142.314C46.9326 142.76 47.0904 143.307 47.0469 143.954H43.7259C43.7368 144.324 43.8728 144.634 44.1339 144.884C44.395 145.129 44.7105 145.252 45.0804 145.252C45.6352 145.252 46.0296 145.023 46.2635 144.566H46.9816C46.8782 144.947 46.6579 145.262 46.3207 145.513C45.9834 145.763 45.5672 145.888 45.0722 145.888ZM45.8719 142.559C45.6488 142.363 45.3796 142.265 45.0641 142.265C44.7486 142.265 44.4657 142.36 44.2155 142.551C43.9707 142.741 43.8184 143.024 43.7585 143.399H46.3043C46.2391 143.029 46.0949 142.749 45.8719 142.559ZM48.0595 145.806V141.727H48.7612V142.518C48.8374 142.268 48.9842 142.067 49.2018 141.914C49.4248 141.762 49.6588 141.686 49.9035 141.686C50.0232 141.686 50.1293 141.697 50.2218 141.718V142.445C50.1238 142.401 49.996 142.379 49.8383 142.379C49.5554 142.379 49.3052 142.502 49.0876 142.747C48.87 142.991 48.7612 143.337 48.7612 143.783V145.806H48.0595ZM52.593 145.888C52.0273 145.888 51.5513 145.681 51.1651 145.268C50.7843 144.854 50.5939 144.354 50.5939 143.766C50.5939 143.179 50.7843 142.679 51.1651 142.265C51.5513 141.852 52.0273 141.645 52.593 141.645C52.8922 141.645 53.1696 141.713 53.4253 141.849C53.6864 141.98 53.8877 142.148 54.0291 142.355V141.727H54.7308V145.806H54.0291V145.178C53.8877 145.385 53.6864 145.556 53.4253 145.692C53.1696 145.823 52.8922 145.888 52.593 145.888ZM52.6991 145.243C53.1016 145.243 53.4335 145.102 53.6946 144.819C53.9557 144.536 54.0862 144.185 54.0862 143.766C54.0862 143.348 53.9557 142.997 53.6946 142.714C53.4335 142.431 53.1016 142.29 52.6991 142.29C52.2911 142.29 51.9566 142.431 51.6955 142.714C51.4344 142.997 51.3038 143.348 51.3038 143.766C51.3038 144.185 51.4344 144.536 51.6955 144.819C51.9566 145.102 52.2911 145.243 52.6991 145.243ZM56.0517 145.806V139.687H56.7535V145.806H56.0517Z" fill="#605D5D"/>
<path d="M19.1526 158.205C19.1526 155.764 21.1314 153.786 23.5724 153.786H243.428C245.869 153.786 247.848 155.764 247.848 158.205V185.404C247.848 187.845 245.869 189.824 243.428 189.824H23.5724C21.1314 189.824 19.1526 187.845 19.1526 185.404V158.205Z" stroke="#605D5D" stroke-width="0.226655"/>
<path opacity="0.2" d="M228.015 172.258C228.015 174.758 225.982 176.791 223.482 176.791C220.983 176.791 218.949 174.758 218.949 172.258C218.949 169.758 220.983 167.725 223.482 167.725C225.982 167.725 228.015 169.758 228.015 172.258Z" fill="#0C0B0E"/>
<path d="M225.395 171.604C225.395 171.691 225.362 171.778 225.296 171.844L223.723 173.425C223.659 173.489 223.573 173.524 223.482 173.524C223.392 173.524 223.305 173.489 223.241 173.425L221.667 171.844C221.535 171.711 221.535 171.496 221.668 171.364C221.801 171.231 222.017 171.232 222.149 171.364L223.482 172.703L224.815 171.364C224.947 171.232 225.162 171.231 225.295 171.364C225.362 171.43 225.395 171.517 225.395 171.604Z" fill="#0C0B0E"/>
<g clip-path="url(#clip2_99_5418)">
<path d="M172.28 164.564V164.571C172.287 164.607 172.287 164.65 172.287 164.693V169.845C172.28 169.873 172.258 169.881 172.237 169.895C172.087 169.966 171.944 170.031 171.794 170.095C171.587 170.188 171.372 170.288 171.165 170.381L170.415 170.724C170.208 170.817 170 170.91 169.8 171.003C169.557 171.117 169.307 171.224 169.064 171.338C168.857 171.431 168.65 171.531 168.435 171.624C168.264 171.703 168.092 171.774 167.928 171.853C167.914 171.86 167.899 171.867 167.885 171.867C167.878 171.867 167.878 171.867 167.871 171.86L168.064 171.538C168.435 170.924 168.8 170.317 169.171 169.702C169.564 169.045 169.965 168.387 170.358 167.73C170.722 167.122 171.094 166.515 171.458 165.908C171.722 165.465 171.994 165.021 172.258 164.578C172.266 164.564 172.273 164.557 172.273 164.543H172.28C172.273 164.55 172.28 164.557 172.28 164.564Z" fill="#8A92B2"/>
<path d="M176.667 171.86L176.674 171.867L175.624 172.489L172.323 174.44C172.308 174.447 172.294 174.454 172.287 174.461C172.265 174.461 172.265 174.44 172.265 174.433V174.368V169.952C172.265 169.931 172.265 169.902 172.273 169.881C172.28 169.852 172.301 169.859 172.323 169.866C172.415 169.909 172.515 169.952 172.608 169.995C172.887 170.124 173.166 170.252 173.444 170.374C173.687 170.481 173.923 170.595 174.166 170.702C174.409 170.81 174.652 170.924 174.895 171.031C175.102 171.124 175.317 171.224 175.524 171.317C175.731 171.41 175.945 171.51 176.153 171.603C176.317 171.674 176.481 171.753 176.646 171.824C176.646 171.846 176.653 171.853 176.667 171.86Z" fill="#454A75"/>
<path d="M172.28 178.899C172.28 178.906 172.272 178.913 172.272 178.92H172.265C172.265 178.906 172.251 178.899 172.244 178.884C171.801 178.263 171.358 177.634 170.915 177.012C170.465 176.376 170.007 175.733 169.557 175.097C169.121 174.483 168.678 173.861 168.242 173.246C168.128 173.082 168.014 172.925 167.899 172.76C167.892 172.746 167.885 172.739 167.871 172.718C167.892 172.718 167.906 172.732 167.913 172.739C168.535 173.103 169.15 173.468 169.771 173.832C170.486 174.254 171.193 174.675 171.908 175.097L172.272 175.311C172.287 175.326 172.287 175.34 172.287 175.354V178.799C172.287 178.834 172.287 178.87 172.28 178.899Z" fill="#8A92B2"/>
<path d="M167.864 171.874V171.867C168.092 171.767 168.314 171.66 168.542 171.56C168.835 171.424 169.128 171.296 169.421 171.16C169.643 171.06 169.871 170.953 170.093 170.853C170.422 170.702 170.743 170.56 171.072 170.409C171.294 170.309 171.515 170.209 171.744 170.102C171.901 170.031 172.065 169.959 172.222 169.888C172.237 169.881 172.258 169.874 172.265 169.859C172.272 169.859 172.272 169.866 172.265 169.874V174.411C172.265 174.433 172.258 174.454 172.272 174.468C172.258 174.49 172.244 174.468 172.237 174.461C172.172 174.425 172.108 174.39 172.044 174.347C170.665 173.532 169.278 172.71 167.899 171.896C167.892 171.889 167.878 171.882 167.864 171.874Z" fill="#62688F"/>
<path d="M176.653 172.718H176.66C176.66 172.732 176.646 172.746 176.639 172.76C175.324 174.611 174.009 176.469 172.694 178.32C172.558 178.513 172.415 178.706 172.28 178.899C172.272 178.891 172.272 178.884 172.272 178.877V178.834V175.369V175.304C172.573 175.126 172.866 174.954 173.166 174.776C174.323 174.09 175.481 173.411 176.631 172.725C176.639 172.732 176.646 172.725 176.653 172.718Z" fill="#62688F"/>
<path d="M172.272 169.874V169.859V169.816V164.629C172.272 164.607 172.265 164.593 172.279 164.571C173.73 166.98 175.181 169.381 176.624 171.789C176.638 171.81 176.66 171.839 176.667 171.867C176.567 171.832 176.474 171.782 176.381 171.739C176.267 171.689 176.145 171.631 176.031 171.581C175.96 171.546 175.881 171.517 175.81 171.481C175.688 171.424 175.567 171.374 175.445 171.317C175.374 171.288 175.302 171.253 175.231 171.217L174.759 171.003C174.68 170.967 174.602 170.931 174.516 170.895L174.173 170.745C174.102 170.717 174.03 170.681 173.959 170.645L173.487 170.431C173.409 170.395 173.33 170.359 173.244 170.324L172.901 170.174C172.823 170.138 172.751 170.102 172.673 170.067C172.537 170.002 172.401 169.938 172.258 169.881C172.279 169.874 172.272 169.874 172.272 169.874Z" fill="#62688F"/>
</g>
<path d="M186.314 176.739V166.439H192.32V167.716H187.663V170.835H191.449V172.111H187.663V175.462H192.32V176.739H186.314ZM196.83 176.811C196.163 176.811 195.626 176.622 195.22 176.245C194.814 175.868 194.611 175.317 194.611 174.592V170.632H193.073V169.486H194.611V167.469H195.858V169.486H197.947V170.632H195.858V174.432C195.858 174.887 195.955 175.206 196.148 175.389C196.342 175.573 196.647 175.665 197.062 175.665C197.43 175.665 197.725 175.617 197.947 175.52V176.637C197.599 176.753 197.227 176.811 196.83 176.811ZM200.788 176.739H199.541V165.859H200.788V170.603C201.282 169.761 202.05 169.34 203.095 169.34C203.917 169.34 204.579 169.606 205.082 170.138C205.585 170.67 205.836 171.381 205.836 172.271V176.739H204.603V172.459C204.603 171.85 204.449 171.371 204.139 171.023C203.83 170.665 203.414 170.486 202.892 170.486C202.292 170.486 201.789 170.723 201.383 171.197C200.987 171.671 200.788 172.319 200.788 173.141V176.739Z" fill="#0C0B0E"/>
<path d="M44.0946 179.228C42.6095 179.228 41.3974 178.727 40.4581 177.724C39.5189 176.721 39.0492 175.439 39.0492 173.878V170.603C39.0492 169.055 39.5189 167.779 40.4581 166.777C41.3974 165.774 42.6095 165.272 44.0946 165.272C45.5669 165.272 46.7727 165.774 47.712 166.777C48.6513 167.779 49.1209 169.055 49.1209 170.603V173.878C49.1209 175.439 48.6513 176.721 47.712 177.724C46.7727 178.727 45.5669 179.228 44.0946 179.228ZM42.324 175.915C42.7682 176.41 43.3584 176.658 44.0946 176.658C44.8308 176.658 45.4146 176.41 45.8462 175.915C46.2904 175.42 46.5125 174.741 46.5125 173.878V170.603C46.5125 169.74 46.2904 169.068 45.8462 168.585C45.4146 168.09 44.8308 167.843 44.0946 167.843C43.3584 167.843 42.7682 168.09 42.324 168.585C41.8797 169.068 41.6576 169.74 41.6576 170.603V173.878C41.6576 174.741 41.8797 175.42 42.324 175.915ZM52.6799 179.171C52.1468 179.171 51.6962 178.987 51.3281 178.619C50.96 178.251 50.776 177.8 50.776 177.267C50.776 176.734 50.96 176.283 51.3281 175.915C51.6962 175.547 52.1468 175.363 52.6799 175.363C53.2003 175.363 53.6445 175.554 54.0126 175.934C54.3934 176.302 54.5838 176.747 54.5838 177.267C54.5838 177.787 54.3934 178.238 54.0126 178.619C53.6445 178.987 53.2003 179.171 52.6799 179.171ZM61.3115 179.228C59.8265 179.228 58.6143 178.727 57.6751 177.724C56.7358 176.721 56.2662 175.439 56.2662 173.878V170.603C56.2662 169.055 56.7358 167.779 57.6751 166.777C58.6143 165.774 59.8265 165.272 61.3115 165.272C62.7839 165.272 63.9897 165.774 64.929 166.777C65.8682 167.779 66.3378 169.055 66.3378 170.603V173.878C66.3378 175.439 65.8682 176.721 64.929 177.724C63.9897 178.727 62.7839 179.228 61.3115 179.228ZM59.5409 175.915C59.9852 176.41 60.5754 176.658 61.3115 176.658C62.0477 176.658 62.6316 176.41 63.0631 175.915C63.5074 175.42 63.7295 174.741 63.7295 173.878V170.603C63.7295 169.74 63.5074 169.068 63.0631 168.585C62.6316 168.09 62.0477 167.843 61.3115 167.843C60.5754 167.843 59.9852 168.09 59.5409 168.585C59.0967 169.068 58.8745 169.74 58.8745 170.603V173.878C58.8745 174.741 59.0967 175.42 59.5409 175.915Z" fill="#0C0B0E"/>
<path d="M19.0392 208.976C19.0392 206.473 21.0687 204.443 23.5723 204.443H243.428C245.932 204.443 247.961 206.473 247.961 208.976V236.175C247.961 238.678 245.932 240.708 243.428 240.708H23.5723C21.0687 240.708 19.0392 238.678 19.0392 236.175V208.976Z" fill="#32C1CC"/>
<path d="M110.271 226.776V219.051H111.282V225.818H115.014V226.776H110.271ZM117.025 219.693C116.902 219.817 116.746 219.878 116.558 219.878C116.369 219.878 116.209 219.817 116.079 219.693C115.948 219.563 115.883 219.403 115.883 219.215C115.883 219.033 115.948 218.877 116.079 218.747C116.209 218.616 116.369 218.551 116.558 218.551C116.746 218.551 116.902 218.616 117.025 218.747C117.149 218.877 117.21 219.033 117.21 219.215C117.21 219.403 117.149 219.563 117.025 219.693ZM116.079 226.776V221.336H117.014V226.776H116.079ZM123.88 229.05H122.944V225.938C122.755 226.214 122.487 226.442 122.139 226.624C121.798 226.798 121.428 226.885 121.029 226.885C120.275 226.885 119.64 226.609 119.125 226.058C118.618 225.507 118.364 224.839 118.364 224.056C118.364 223.273 118.618 222.605 119.125 222.054C119.64 221.503 120.275 221.227 121.029 221.227C121.428 221.227 121.798 221.318 122.139 221.499C122.487 221.673 122.755 221.898 122.944 222.174V221.336H123.88V229.05ZM121.171 226.025C121.707 226.025 122.15 225.837 122.498 225.459C122.846 225.082 123.02 224.614 123.02 224.056C123.02 223.498 122.846 223.03 122.498 222.653C122.15 222.275 121.707 222.087 121.171 222.087C120.627 222.087 120.181 222.275 119.833 222.653C119.484 223.03 119.31 223.498 119.31 224.056C119.31 224.614 119.484 225.082 119.833 225.459C120.181 225.837 120.627 226.025 121.171 226.025ZM127.567 226.885C126.972 226.885 126.489 226.685 126.12 226.286C125.75 225.88 125.565 225.343 125.565 224.676V221.336H126.5V224.535C126.5 224.992 126.609 225.354 126.827 225.623C127.052 225.891 127.353 226.025 127.73 226.025C128.165 226.025 128.524 225.847 128.807 225.492C129.097 225.129 129.242 224.644 129.242 224.034V221.336H130.178V226.776H129.242V225.938C128.887 226.569 128.328 226.885 127.567 226.885ZM132.888 219.693C132.764 219.817 132.608 219.878 132.42 219.878C132.231 219.878 132.072 219.817 131.941 219.693C131.811 219.563 131.745 219.403 131.745 219.215C131.745 219.033 131.811 218.877 131.941 218.747C132.072 218.616 132.231 218.551 132.42 218.551C132.608 218.551 132.764 218.616 132.888 218.747C133.011 218.877 133.073 219.033 133.073 219.215C133.073 219.403 133.011 219.563 132.888 219.693ZM131.941 226.776V221.336H132.877V226.776H131.941ZM136.892 226.885C136.137 226.885 135.503 226.609 134.988 226.058C134.48 225.507 134.226 224.839 134.226 224.056C134.226 223.273 134.48 222.605 134.988 222.054C135.503 221.503 136.137 221.227 136.892 221.227C137.291 221.227 137.66 221.318 138.001 221.499C138.349 221.673 138.618 221.898 138.806 222.174V218.616H139.742V226.776H138.806V225.938C138.618 226.214 138.349 226.442 138.001 226.624C137.66 226.798 137.291 226.885 136.892 226.885ZM137.033 226.025C137.57 226.025 138.012 225.837 138.36 225.459C138.708 225.082 138.883 224.614 138.883 224.056C138.883 223.498 138.708 223.03 138.36 222.653C138.012 222.275 137.57 222.087 137.033 222.087C136.489 222.087 136.043 222.275 135.695 222.653C135.347 223.03 135.173 223.498 135.173 224.056C135.173 224.614 135.347 225.082 135.695 225.459C136.043 225.837 136.489 226.025 137.033 226.025ZM143.744 226.885C142.99 226.885 142.355 226.609 141.84 226.058C141.333 225.507 141.079 224.839 141.079 224.056C141.079 223.273 141.333 222.605 141.84 222.054C142.355 221.503 142.99 221.227 143.744 221.227C144.143 221.227 144.513 221.318 144.854 221.499C145.202 221.673 145.471 221.898 145.659 222.174V221.336H146.595V226.776H145.659V225.938C145.471 226.214 145.202 226.442 144.854 226.624C144.513 226.798 144.143 226.885 143.744 226.885ZM143.886 226.025C144.423 226.025 144.865 225.837 145.213 225.459C145.561 225.082 145.735 224.614 145.735 224.056C145.735 223.498 145.561 223.03 145.213 222.653C144.865 222.275 144.423 222.087 143.886 222.087C143.342 222.087 142.896 222.275 142.548 222.653C142.2 223.03 142.025 223.498 142.025 224.056C142.025 224.614 142.2 225.082 142.548 225.459C142.896 225.837 143.342 226.025 143.886 226.025ZM150.467 226.83C149.966 226.83 149.564 226.689 149.259 226.406C148.954 226.123 148.802 225.71 148.802 225.166V222.196H147.649V221.336H148.802V219.824H149.738V221.336H151.304V222.196H149.738V225.046C149.738 225.387 149.81 225.626 149.955 225.764C150.1 225.902 150.329 225.971 150.641 225.971C150.916 225.971 151.138 225.935 151.304 225.862V226.7C151.043 226.787 150.764 226.83 150.467 226.83ZM154.742 226.885C153.952 226.885 153.296 226.616 152.773 226.08C152.258 225.543 152.001 224.868 152.001 224.056C152.001 223.236 152.251 222.562 152.752 222.032C153.259 221.496 153.93 221.227 154.764 221.227C155.606 221.227 156.266 221.525 156.744 222.119C157.223 222.714 157.433 223.443 157.375 224.306H152.947C152.962 224.799 153.143 225.213 153.491 225.547C153.839 225.873 154.26 226.036 154.753 226.036C155.493 226.036 156.019 225.731 156.331 225.122H157.288C157.15 225.63 156.857 226.051 156.407 226.384C155.957 226.718 155.403 226.885 154.742 226.885ZM155.809 222.446C155.511 222.185 155.152 222.054 154.732 222.054C154.311 222.054 153.934 222.181 153.6 222.435C153.274 222.689 153.071 223.066 152.991 223.566H156.385C156.298 223.073 156.106 222.7 155.809 222.446Z" fill="#1F2832"/>
</g>
<defs>
<filter id="filter0_dd_99_5418" x="-16" y="-8" width="299" height="325.292" filterUnits="userSpaceOnUse" color-interpolation-filters="sRGB">
<feFlood flood-opacity="0" result="BackgroundImageFix"/>
<feColorMatrix in="SourceAlpha" type="matrix" values="0 0 0 0 0 0 0 0 0 0 0 0 0 0 0 0 0 0 127 0" result="hardAlpha"/>
<feOffset dy="8"/>
<feGaussianBlur stdDeviation="8"/>
<feColorMatrix type="matrix" values="0 0 0 0 0 0 0 0 0 0 0 0 0 0 0 0 0 0 0.08 0"/>
<feBlend mode="normal" in2="BackgroundImageFix" result="effect1_dropShadow_99_5418"/>
<feColorMatrix in="SourceAlpha" type="matrix" values="0 0 0 0 0 0 0 0 0 0 0 0 0 0 0 0 0 0 127 0" result="hardAlpha"/>
<feOffset/>
<feGaussianBlur stdDeviation="2"/>
<feColorMatrix type="matrix" values="0 0 0 0 0 0 0 0 0 0 0 0 0 0 0 0 0 0 0.04 0"/>
<feBlend mode="normal" in2="effect1_dropShadow_99_5418" result="effect2_dropShadow_99_5418"/>
<feBlend mode="normal" in="SourceGraphic" in2="effect2_dropShadow_99_5418" result="shape"/>
</filter>
<linearGradient id="paint0_linear_99_5418" x1="133.5" y1="0" x2="133.5" y2="293.292" gradientUnits="userSpaceOnUse">
<stop stop-color="#1F2832"/>
<stop offset="1" stop-color="#1F2832" stop-opacity="0"/>
</linearGradient>
<clipPath id="clip0_99_5418">
<rect width="267" height="292" fill="white"/>
</clipPath>
<clipPath id="clip1_99_5418">
<rect width="14.5059" height="14.5059" fill="white" transform="translate(165.005 97.849)"/>
</clipPath>
<clipPath id="clip2_99_5418">
<rect width="14.5059" height="14.5059" fill="white" transform="translate(165.005 164.486)"/>
</clipPath>
</defs>
</svg>
