<svg width="16" height="16" viewBox="0 0 16 16" fill="none" xmlns="http://www.w3.org/2000/svg">
<path fill-rule="evenodd" clip-rule="evenodd" d="M6.59682 7.48671C6.30515 7.48671 6.07453 7.71337 6.07453 8.00004C6.07453 8.28004 6.30515 8.51337 6.59682 8.51337H10.6666V11.7C10.6666 13.3334 9.31678 14.6667 7.64817 14.6667H4.34488C2.68306 14.6667 1.33325 13.34 1.33325 11.7067V4.30004C1.33325 2.66004 2.68984 1.33337 4.35166 1.33337H7.66174C9.31678 1.33337 10.6666 2.66004 10.6666 4.29337V7.48671H6.59682ZM13.0867 5.69351L15.0334 7.63351C15.1334 7.73351 15.1867 7.86017 15.1867 8.00017C15.1867 8.13351 15.1334 8.26684 15.0334 8.36017L13.0867 10.3002C12.9867 10.4002 12.8534 10.4535 12.7267 10.4535C12.5934 10.4535 12.4601 10.4002 12.3601 10.3002C12.1601 10.1002 12.1601 9.77351 12.3601 9.57351L13.4267 8.51351H10.6667V7.48684H13.4267L12.3601 6.42684C12.1601 6.22684 12.1601 5.90017 12.3601 5.70017C12.5601 5.49351 12.8867 5.49351 13.0867 5.69351Z" fill="#1F2832"/>
</svg>
