<svg width="24" height="24" viewBox="0 0 24 24" fill="none" xmlns="http://www.w3.org/2000/svg">
<g clip-path="url(#clip0_24_1712)">
<path d="M16.9512 8.95202C16.8672 9.03602 16.7544 9.08402 16.6368 9.08402H5.48881C5.09521 9.08402 4.89601 8.60403 5.16961 8.31843L6.99841 6.42483C7.08241 6.33843 7.19761 6.28802 7.31761 6.28802H18.5064C18.9024 6.28802 19.1016 6.77283 18.8208 7.05843L16.9512 8.95202ZM16.9512 17.4144C16.8672 17.496 16.7544 17.544 16.6368 17.544H5.48881C5.09521 17.544 4.89601 17.076 5.16961 16.7976L6.99841 14.9496C7.08241 14.8656 7.19761 14.8176 7.31761 14.8176H18.5064C18.9024 14.8176 19.1016 15.2904 18.8208 15.5688L16.9512 17.4144ZM16.6368 10.5528C16.7544 10.5528 16.8672 10.5984 16.9512 10.6824L18.8208 12.5304C19.1016 12.8064 18.9024 13.2816 18.5064 13.2816H7.31761C7.19761 13.2816 7.08241 13.2336 6.99841 13.1496L5.16961 11.3016C4.89361 11.0232 5.09281 10.5552 5.48881 10.5552L16.6368 10.5528Z" fill="#00FFAD"/>
<path d="M12 0C18.6264 0 24 5.3736 24 12C24 18.6264 18.6264 24 12 24C5.3736 24 0 18.6264 0 12C0 5.3736 5.3736 0 12 0Z" fill="black"/>
<path fill-rule="evenodd" clip-rule="evenodd" d="M5.54892 10.8552H16.6537C16.7929 10.8552 16.9249 10.9104 17.0209 11.0088L18.7777 12.7776C19.1017 13.104 18.8713 13.6608 18.4105 13.6608H7.30572C7.16652 13.6608 7.03452 13.6056 6.93852 13.5072L5.18172 11.7384C4.85532 11.412 5.08812 10.8552 5.54892 10.8552ZM5.18172 8.51041L6.93852 6.74161C7.03692 6.64321 7.16892 6.58801 7.30572 6.58801H18.4081C18.8689 6.58801 19.1017 7.14481 18.7753 7.47121L17.0209 9.24001C16.9225 9.33841 16.7905 9.39361 16.6537 9.39361H5.54892C5.08812 9.39361 4.85532 8.83681 5.18172 8.51041ZM18.7753 16.0056L17.0185 17.7744C16.9201 17.8728 16.7881 17.928 16.6513 17.928H5.54892C5.08812 17.928 4.85532 17.3712 5.18172 17.0448L6.93852 15.276C7.03692 15.1776 7.16892 15.1224 7.30572 15.1224H18.4081C18.8689 15.1224 19.1017 15.6792 18.7753 16.0056Z" fill="url(#paint0_linear_24_1712)"/>
</g>
<defs>
<linearGradient id="paint0_linear_24_1712" x1="5.82059" y1="18.4159" x2="18.1364" y2="6.10008" gradientUnits="userSpaceOnUse">
<stop stop-color="#CB4EE8"/>
<stop offset="1" stop-color="#10F4B1"/>
</linearGradient>
<clipPath id="clip0_24_1712">
<rect width="24" height="24" fill="white"/>
</clipPath>
</defs>
</svg>
