<svg width="12" height="24" viewBox="0 0 12 24" fill="none" xmlns="http://www.w3.org/2000/svg">
<path fill-rule="evenodd" clip-rule="evenodd" d="M6.85799 20.9615C6.31957 21.2386 5.68048 21.2386 5.14206 20.9615C4.91445 20.8444 4.72684 20.662 4.5377 20.4353C4.35133 20.212 4.13918 19.915 3.87299 19.5423L3.87299 19.5423L3.22644 18.6371C2.87065 18.139 2.59083 17.7473 2.39756 17.4276C2.20489 17.109 2.06669 16.8131 2.04474 16.5108C1.99387 15.8103 2.33876 15.1401 2.93835 14.7743C3.19713 14.6165 3.51818 14.557 3.88949 14.5285C4.26195 14.5 4.74336 14.5 5.35547 14.5H5.35547H6.64458H6.64458C7.25669 14.5 7.73811 14.5 8.11057 14.5285C8.48188 14.557 8.80293 14.6165 9.0617 14.7743C9.66129 15.1401 10.0062 15.8103 9.95532 16.5108C9.93337 16.8131 9.79517 17.109 9.6025 17.4276C9.40923 17.7473 9.12941 18.139 8.77362 18.6371L8.12707 19.5423C7.86088 19.915 7.64873 20.212 7.46236 20.4353C7.27322 20.662 7.08561 20.8444 6.85799 20.9615Z" fill="white"/>
<path fill-rule="evenodd" clip-rule="evenodd" d="M6.85799 2.70781C6.31957 2.43073 5.68048 2.43073 5.14206 2.70781C4.91445 2.82495 4.72684 3.00731 4.5377 3.23397C4.35133 3.4573 4.13917 3.75432 3.87299 4.12699L3.22644 5.03215C2.87065 5.53025 2.59083 5.922 2.39756 6.24167C2.20489 6.56035 2.06669 6.85618 2.04474 7.15851C1.99387 7.85901 2.33876 8.52921 2.93835 8.89498C3.19713 9.05284 3.51818 9.11233 3.88949 9.14077C4.26195 9.16931 4.74336 9.1693 5.35547 9.1693H6.64458C7.25669 9.1693 7.73811 9.16931 8.11057 9.14077C8.48188 9.11233 8.80293 9.05284 9.0617 8.89498C9.66129 8.52921 10.0062 7.85901 9.95532 7.15851C9.93337 6.85618 9.79517 6.56035 9.6025 6.24167C9.40923 5.922 9.12941 5.53025 8.77362 5.03216L8.77362 5.03216L8.12707 4.12698L8.12707 4.12698C7.86088 3.75432 7.64873 3.4573 7.46236 3.23397C7.27322 3.00731 7.08561 2.82495 6.85799 2.70781Z" fill="#605D5D"/>
</svg>
