<svg width="48" height="48" viewBox="0 0 48 48" fill="none" xmlns="http://www.w3.org/2000/svg">
<circle cx="24" cy="24" r="24" fill="#8E8E93"/>
<path d="M34.1772 18.6626C34.1945 18.896 34.1945 19.128 34.1945 19.36C34.1945 26.46 28.7905 34.6413 18.9145 34.6413C15.8718 34.6413 13.0452 33.76 10.6665 32.2293C11.0985 32.2786 11.5145 32.296 11.9638 32.296C14.3812 32.3018 16.73 31.4935 18.6318 30.0013C17.5111 29.981 16.4246 29.6113 15.5242 28.9436C14.6237 28.276 13.9542 27.3438 13.6092 26.2773C13.9412 26.3266 14.2745 26.36 14.6238 26.36C15.1052 26.36 15.5892 26.2933 16.0385 26.1773C14.8222 25.9317 13.7285 25.2724 12.9433 24.3116C12.1582 23.3507 11.7301 22.1475 11.7318 20.9066V20.84C12.4478 21.2386 13.2785 21.488 14.1585 21.5213C13.4213 21.0314 12.8168 20.3667 12.399 19.5864C11.9811 18.8061 11.7629 17.9345 11.7638 17.0493C11.7638 16.052 12.0292 15.1373 12.4945 14.34C13.844 16 15.5272 17.3581 17.435 18.3262C19.3427 19.2943 21.4326 19.8509 23.5692 19.96C23.4865 19.56 23.4358 19.1453 23.4358 18.7293C23.4355 18.0239 23.5742 17.3254 23.8439 16.6736C24.1137 16.0219 24.5093 15.4297 25.0081 14.9309C25.5069 14.4321 26.0991 14.0365 26.7508 13.7667C27.4026 13.497 28.1011 13.3583 28.8065 13.3586C30.3532 13.3586 31.7492 14.0066 32.7305 15.0546C33.9329 14.8221 35.0859 14.3832 36.1385 13.7573C35.7377 14.9984 34.8982 16.0508 33.7772 16.7173C34.8436 16.5957 35.8857 16.3152 36.8692 15.8853C36.1347 16.9561 35.2245 17.8951 34.1772 18.6626Z" fill="#1F2832"/>
</svg>
