<svg width="100" height="100" viewBox="0 0 100 100" fill="none" xmlns="http://www.w3.org/2000/svg">
<path d="M0.5 10C0.5 4.7533 4.7533 0.5 10 0.5H90C95.2467 0.5 99.5 4.7533 99.5 10V90C99.5 95.2467 95.2467 99.5 90 99.5H10C4.7533 99.5 0.5 95.2467 0.5 90V10Z" stroke="#605D5D"/>
<path d="M59.7965 11.0075C59.0761 10.4234 58.243 9.994 57.3493 9.74613C56.4555 9.49826 55.5203 9.43723 54.6019 9.56686C53.6835 9.69649 52.8017 10.014 52.0115 10.4996C51.2213 10.9851 50.5396 11.6283 50.009 12.389L36.32 31.9955H41.81L53.69 14.963C53.867 14.7089 54.0945 14.494 54.3584 14.3319C54.6222 14.1697 54.9167 14.0638 55.2234 14.0207C55.53 13.9776 55.8423 13.9983 56.1406 14.0815C56.4389 14.1647 56.7168 14.3085 56.957 14.504L60.593 17.456L50.54 31.9955H56.012L64.094 20.2955L71.672 26.447C72.1135 26.806 72.4027 27.3189 72.4812 27.8826C72.5597 28.4462 72.4217 29.0186 72.095 29.4845L70.34 31.9955H75.83C76.7841 30.5967 77.1777 28.8904 76.9326 27.215C76.6876 25.5396 75.8218 24.0175 74.507 22.9505L59.792 11.0075H59.7965ZM25.25 27.5C23.4598 27.5 21.7429 28.2112 20.477 29.4771C19.2112 30.7429 18.5 32.4598 18.5 34.25V70.25C18.5 73.2337 19.6853 76.0952 21.795 78.205C23.9048 80.3148 26.7663 81.5 29.75 81.5H72.5C74.8869 81.5 77.1761 80.5518 78.864 78.864C80.5518 77.1762 81.5 74.887 81.5 72.5V45.5C81.5 43.1131 80.5518 40.8239 78.864 39.1361C77.1761 37.4482 74.8869 36.5 72.5 36.5H25.25C24.6533 36.5 24.081 36.263 23.659 35.841C23.2371 35.4191 23 34.8468 23 34.25C23 33.6533 23.2371 33.081 23.659 32.659C24.081 32.2371 24.6533 32 25.25 32H31.8605L35.0105 27.5H25.25ZM65.75 59H70.25C70.8467 59 71.419 59.2371 71.841 59.659C72.2629 60.081 72.5 60.6533 72.5 61.25C72.5 61.8468 72.2629 62.4191 71.841 62.841C71.419 63.263 70.8467 63.5 70.25 63.5H65.75C65.1533 63.5 64.581 63.263 64.159 62.841C63.7371 62.4191 63.5 61.8468 63.5 61.25C63.5 60.6533 63.7371 60.081 64.159 59.659C64.581 59.2371 65.1533 59 65.75 59Z" fill="#605D5D"/>
</svg>
