<svg width="62" height="62" viewBox="0 0 62 62" fill="none" xmlns="http://www.w3.org/2000/svg">
<path d="M31 21.3125C32.0701 21.3125 32.9375 22.18 32.9375 23.25V31C32.9375 32.0701 32.0701 32.9375 31 32.9375C29.93 32.9375 29.0625 32.0701 29.0625 31V23.25C29.0625 22.18 29.93 21.3125 31 21.3125Z" fill="#EB5757"/>
<path d="M31 41.3334C32.4268 41.3334 33.5834 40.1768 33.5834 38.75C33.5834 37.3233 32.4268 36.1667 31 36.1667C29.5733 36.1667 28.4167 37.3233 28.4167 38.75C28.4167 40.1768 29.5733 41.3334 31 41.3334Z" fill="#EB5757"/>
<path fill-rule="evenodd" clip-rule="evenodd" d="M26.1562 4.52707C29.1535 2.79656 32.8464 2.79656 35.8437 4.52707C37.1273 5.26815 38.1429 6.45658 39.1459 7.92181C40.1452 9.38161 41.2742 11.3371 42.7029 13.8118L53.9739 33.3337C55.4028 35.8085 56.5319 37.7642 57.2965 39.3595C58.0639 40.9608 58.5853 42.4345 58.5853 43.9167C58.5853 47.3777 56.7389 50.5758 53.7416 52.3063C52.458 53.0474 50.921 53.3327 49.1506 53.4687C47.3866 53.6042 45.1285 53.6042 42.2708 53.6042H19.7291C16.8714 53.6042 14.6133 53.6042 12.8494 53.4687C11.079 53.3327 9.54196 53.0474 8.25836 52.3063C5.26104 50.5758 3.41461 47.3777 3.41461 43.9167C3.41461 42.4345 3.93603 40.9608 4.70345 39.3595C5.46808 37.7642 6.59716 35.8086 8.026 33.3338L19.2969 13.812C20.7257 11.3372 21.8547 9.38165 22.854 7.9218C23.857 6.45658 24.8726 5.26815 26.1562 4.52707ZM33.9062 7.88291C32.1078 6.84461 29.8921 6.84461 28.0937 7.88291C27.5789 8.18013 26.963 8.77933 26.0516 10.1107C25.1465 11.4329 24.0909 13.2586 22.6103 15.8229L11.4242 35.1979C9.94364 37.7623 8.8904 39.5893 8.19784 41.0343C7.50055 42.4892 7.28961 43.3223 7.28961 43.9167C7.28961 45.9933 8.39747 47.9122 10.1959 48.9505C10.7107 49.2477 11.5376 49.4815 13.1462 49.6051C14.7439 49.7278 16.8527 49.7292 19.8138 49.7292H42.1861C45.1472 49.7292 47.2561 49.7278 48.8538 49.6051C50.4624 49.4815 51.2893 49.2477 51.8041 48.9505C53.6025 47.9122 54.7103 45.9933 54.7103 43.9167C54.7103 43.3223 54.4994 42.4892 53.8021 41.0343C53.1095 39.5893 52.0563 37.7623 50.5758 35.1979L39.3896 15.8229C37.909 13.2586 36.8534 11.4329 35.9483 10.1107C35.037 8.77933 34.421 8.18013 33.9062 7.88291Z" fill="#EB5757"/>
</svg>
