<svg width="120" height="57" viewBox="0 0 120 57" fill="none" xmlns="http://www.w3.org/2000/svg">
<path d="M12.0396 19.5337C12.0396 15.1123 15.5859 11.5281 19.9604 11.5281V36.8258H12.0396V19.5337Z" fill="#32C1CC"/>
<path d="M0 32.0225C0 27.6011 3.54626 24.0169 7.92079 24.0169V36.8258H0V32.0225Z" fill="#32C1CC"/>
<path d="M24.0792 8.00562C24.0792 3.58424 27.6255 0 32 0V36.8258H24.0792V8.00562Z" fill="#32C1CC"/>
<path d="M32 40.9888C32 45.2352 30.331 49.3077 27.3601 52.3104C24.3892 55.3131 20.3599 57 16.1584 57C11.957 57 7.9276 55.3131 4.95673 52.3104C1.98585 49.3077 0.316832 45.2352 0.316832 40.9888H32Z" fill="#32C1CC"/>
<path d="M49.0474 30.288C47.0154 30.288 45.3754 29.656 44.1274 28.392C42.8794 27.128 42.2554 25.44 42.2554 23.328V12.96H45.0634V23.376C45.0634 24.704 45.4234 25.736 46.1434 26.472C46.8634 27.208 47.8314 27.576 49.0474 27.576C50.2634 27.576 51.2234 27.208 51.9274 26.472C52.6474 25.736 53.0074 24.704 53.0074 23.376V12.96H55.8154V23.328C55.8154 25.424 55.1834 27.112 53.9194 28.392C52.6554 29.656 51.0314 30.288 49.0474 30.288ZM59.2682 30V12H61.9082V30H59.2682ZM66.7757 15.384C66.2957 15.384 65.8797 15.216 65.5277 14.88C65.1757 14.528 64.9997 14.104 64.9997 13.608C64.9997 13.128 65.1757 12.72 65.5277 12.384C65.8797 12.032 66.2957 11.856 66.7757 11.856C67.2717 11.856 67.6877 12.032 68.0237 12.384C68.3597 12.72 68.5277 13.128 68.5277 13.608C68.5277 14.104 68.3597 14.528 68.0237 14.88C67.6877 15.216 67.2717 15.384 66.7757 15.384ZM65.4557 30V18H68.0957V30H65.4557ZM83.0432 35.016H80.4032V28.392C80.0352 28.904 79.5072 29.344 78.8192 29.712C78.1312 30.064 77.3792 30.24 76.5632 30.24C74.9312 30.24 73.5552 29.632 72.4352 28.416C71.3312 27.2 70.7792 25.728 70.7792 24C70.7792 22.272 71.3312 20.8 72.4352 19.584C73.5552 18.368 74.9312 17.76 76.5632 17.76C77.3792 17.76 78.1312 17.944 78.8192 18.312C79.5072 18.664 80.0352 19.096 80.4032 19.608V18H83.0432V35.016ZM74.4752 26.736C75.1472 27.472 76.0032 27.84 77.0432 27.84C78.0832 27.84 78.9392 27.472 79.6112 26.736C80.2832 26 80.6192 25.088 80.6192 24C80.6192 22.912 80.2832 22 79.6112 21.264C78.9392 20.528 78.0832 20.16 77.0432 20.16C76.0032 20.16 75.1472 20.528 74.4752 21.264C73.8032 22 73.4672 22.912 73.4672 24C73.4672 25.088 73.8032 26 74.4752 26.736ZM90.9158 30.24C89.5398 30.24 88.4518 29.784 87.6518 28.872C86.8518 27.944 86.4518 26.712 86.4518 25.176V18H89.0918V24.744C89.0918 25.704 89.2998 26.464 89.7158 27.024C90.1318 27.568 90.7238 27.84 91.4918 27.84C92.3878 27.84 93.0998 27.504 93.6278 26.832C94.1558 26.144 94.4198 25.168 94.4198 23.904V18H97.0598V30H94.4198V28.368C93.7158 29.616 92.5478 30.24 90.9158 30.24ZM101.932 15.384C101.452 15.384 101.036 15.216 100.684 14.88C100.332 14.528 100.156 14.104 100.156 13.608C100.156 13.128 100.332 12.72 100.684 12.384C101.036 12.032 101.452 11.856 101.932 11.856C102.428 11.856 102.844 12.032 103.18 12.384C103.516 12.72 103.684 13.128 103.684 13.608C103.684 14.104 103.516 14.528 103.18 14.88C102.844 15.216 102.428 15.384 101.932 15.384ZM100.612 30V18H103.252V30H100.612ZM111.719 30.24C110.087 30.24 108.711 29.632 107.591 28.416C106.487 27.2 105.935 25.728 105.935 24C105.935 22.272 106.487 20.8 107.591 19.584C108.711 18.368 110.087 17.76 111.719 17.76C112.535 17.76 113.287 17.944 113.975 18.312C114.663 18.664 115.191 19.096 115.559 19.608V12H118.199V30H115.559V28.392C115.191 28.904 114.663 29.344 113.975 29.712C113.287 30.064 112.535 30.24 111.719 30.24ZM109.631 26.736C110.303 27.472 111.159 27.84 112.199 27.84C113.239 27.84 114.095 27.472 114.767 26.736C115.439 26 115.775 25.088 115.775 24C115.775 22.912 115.439 22 114.767 21.264C114.095 20.528 113.239 20.16 112.199 20.16C111.159 20.16 110.303 20.528 109.631 21.264C108.959 22 108.623 22.912 108.623 24C108.623 25.088 108.959 26 109.631 26.736Z" fill="white"/>
<path d="M40.9677 48V40.9H45.1877V42.02H42.1377V43.85H44.5377V44.96H42.1377V48H40.9677ZM46.329 48V40.9H47.499V48H46.329ZM55.4291 48H54.4091L50.4091 42.89V48H49.2391V40.9H50.2591L54.2491 46V40.9H55.4291V48ZM56.3388 48L59.4388 40.9H60.4588L63.5588 48H62.3388L61.5288 46.14H58.3488L57.5488 48H56.3388ZM59.9388 42.48L58.7988 45.1H61.0788L59.9388 42.48ZM70.6635 48H69.6435L65.6435 42.89V48H64.4735V40.9H65.4935L69.4835 46V40.9H70.6635V48ZM75.6532 48.12C74.5932 48.12 73.7099 47.77 73.0032 47.07C72.3032 46.3633 71.9532 45.49 71.9532 44.45C71.9532 43.41 72.3032 42.54 73.0032 41.84C73.7099 41.1333 74.5932 40.78 75.6532 40.78C76.4932 40.78 77.2265 41.02 77.8532 41.5C78.4865 41.9733 78.8932 42.5667 79.0732 43.28H77.8132C77.6599 42.8733 77.3865 42.5433 76.9932 42.29C76.5999 42.0367 76.1532 41.91 75.6532 41.91C74.9199 41.91 74.3165 42.1533 73.8432 42.64C73.3699 43.1267 73.1332 43.73 73.1332 44.45C73.1332 45.17 73.3699 45.7733 73.8432 46.26C74.3165 46.7467 74.9199 46.99 75.6532 46.99C76.1532 46.99 76.5999 46.8633 76.9932 46.61C77.3865 46.3567 77.6599 46.0267 77.8132 45.62H79.0732C78.8932 46.3333 78.4865 46.93 77.8532 47.41C77.2265 47.8833 76.4932 48.12 75.6532 48.12ZM80.2548 48V40.9H84.5248V42.02H81.4248V43.84H83.9248V44.96H81.4248V46.88H84.5248V48H80.2548Z" fill="white"/>
</svg>
